<svg width="20" height="20" viewBox="0 0 20 20" fill="none" xmlns="http://www.w3.org/2000/svg">
<g id="fluent-mdl2:note-reply">
<path id="Vector" d="M17.5 15C17.8451 15 18.1673 15.0651 18.4668 15.1953C18.7663 15.3255 19.0332 15.5046 19.2676 15.7324C19.502 15.9603 19.681 16.224 19.8047 16.5234C19.9284 16.8229 19.9935 17.1484 20 17.5C20 17.8451 19.9349 18.1673 19.8047 18.4668C19.6745 18.7663 19.4954 19.0332 19.2676 19.2676C19.0397 19.502 18.776 19.681 18.4766 19.8047C18.1771 19.9284 17.8516 19.9935 17.5 20V18.75C17.6758 18.75 17.8385 18.7174 17.9883 18.6523C18.138 18.5872 18.2682 18.4993 18.3789 18.3887C18.4896 18.278 18.5807 18.1445 18.6523 17.9883C18.724 17.832 18.7565 17.6693 18.75 17.5C18.75 17.3242 18.7174 17.1615 18.6523 17.0117C18.5872 16.862 18.4993 16.7318 18.3887 16.6211C18.278 16.5104 18.1445 16.4193 17.9883 16.3477C17.832 16.276 17.6693 16.2435 17.5 16.25H14.6387L16.2207 17.8418L15.3418 18.7207L12.2461 15.625L15.3418 12.5293L16.2207 13.4082L14.6387 15H17.5ZM11.9043 17.5L13.1543 18.75H6.61133L1.25 13.3887V1.25H18.75V13.7305L17.5 12.4805V2.5H2.5V12.5H7.5V17.5H11.9043ZM6.25 13.75H3.38867L6.25 16.6113V13.75Z" fill="#415283"/>
</g>
</svg>
