<svg width="343" height="48" viewBox="0 0 343 48" fill="none" xmlns="http://www.w3.org/2000/svg">
<g clip-path="url(#clip0_6665_52273)">
<rect width="343" height="48" fill="#F6F8FF"/>
<rect width="136" height="112" transform="translate(0 -32)" fill="#F6F8FF"/>
<path d="M36.5 -29.5L39.5175 1.9482L52.1054 -27.0284L45.2572 3.81312L66.1832 -19.8554L50.1396 7.36042L77.3554 -8.68316L53.6869 12.2428L84.5284 5.39464L55.5518 17.9825L87 21L55.5518 24.0175L84.5284 36.6054L53.6869 29.7572L77.3554 50.6832L50.1396 34.6396L66.1832 61.8554L45.2572 38.1869L52.1054 69.0284L39.5175 40.0518L36.5 71.5L33.4825 40.0518L20.8946 69.0284L27.7428 38.1869L6.81684 61.8554L22.8604 34.6396L-4.35536 50.6832L19.3131 29.7572L-11.5284 36.6054L17.4482 24.0175L-14 21L17.4482 17.9825L-11.5284 5.39464L19.3131 12.2428L-4.35536 -8.68316L22.8604 7.36042L6.81684 -19.8554L27.7428 3.81312L20.8946 -27.0284L33.4825 1.9482L36.5 -29.5Z" fill="#B6E0CF"/>
<path d="M27.9287 22.3711C26.4196 22.3711 25.1084 22.1855 23.9951 21.8145C22.888 21.4372 21.9665 20.93 21.2305 20.293C20.5007 19.6497 19.9564 18.9045 19.5977 18.0571C19.2389 17.2036 19.0596 16.3006 19.0596 15.3481C19.0596 14.3957 19.2389 13.4958 19.5977 12.6484C19.9564 11.7949 20.5007 11.0496 21.2305 10.4126C21.9665 9.76937 22.888 9.26221 23.9951 8.89111C25.1084 8.51383 26.4196 8.3252 27.9287 8.3252C29.4378 8.3252 30.7459 8.51383 31.853 8.89111C32.9663 9.26221 33.8879 9.76937 34.6177 10.4126C35.3537 11.0496 35.901 11.7949 36.2598 12.6484C36.6185 13.4958 36.7979 14.3957 36.7979 15.3481C36.7979 16.3006 36.6185 17.2036 36.2598 18.0571C35.901 18.9045 35.3537 19.6497 34.6177 20.293C33.8879 20.93 32.9663 21.4372 31.853 21.8145C30.7459 22.1855 29.4378 22.3711 27.9287 22.3711ZM27.9287 19.6899C28.9492 19.6899 29.8182 19.5693 30.5356 19.3281C31.2593 19.0869 31.8468 18.7684 32.2983 18.3726C32.756 17.9705 33.09 17.5098 33.3003 16.9902C33.5106 16.4645 33.6157 15.9172 33.6157 15.3481C33.6157 14.7853 33.5106 14.241 33.3003 13.7153C33.09 13.1896 32.756 12.7288 32.2983 12.333C31.8468 11.931 31.2593 11.6094 30.5356 11.3682C29.8182 11.127 28.9492 11.0063 27.9287 11.0063C26.9082 11.0063 26.0361 11.127 25.3125 11.3682C24.5951 11.6094 24.0075 11.931 23.5498 12.333C23.0983 12.7288 22.7674 13.1896 22.5571 13.7153C22.3468 14.241 22.2417 14.7853 22.2417 15.3481C22.2417 15.9172 22.3468 16.4645 22.5571 16.9902C22.7674 17.5098 23.0983 17.9705 23.5498 18.3726C24.0075 18.7684 24.5951 19.0869 25.3125 19.3281C26.0361 19.5693 26.9082 19.6899 27.9287 19.6899ZM38.0967 12.4443H49.3687V14.7822H45.2124V22H42.1602V14.7822H38.0967V12.4443ZM50.8623 22V12.4443H58.8501C60.0314 12.4443 60.9375 12.6577 61.5684 13.0845C62.1992 13.505 62.5146 14.139 62.5146 14.9863C62.5146 15.2956 62.4621 15.5708 62.3569 15.812C62.258 16.047 62.125 16.2511 61.958 16.4243C61.7972 16.5913 61.6117 16.7274 61.4014 16.8325C61.1911 16.9315 60.9777 16.9995 60.7612 17.0366C61.089 17.0923 61.3735 17.1882 61.6147 17.3242C61.8621 17.4603 62.0662 17.6273 62.2271 17.8252C62.394 18.0231 62.5177 18.2458 62.5981 18.4932C62.6785 18.7344 62.7188 18.988 62.7188 19.2539C62.7188 19.7487 62.6136 20.1724 62.4033 20.5249C62.193 20.8713 61.9023 21.1558 61.5312 21.3784C61.1663 21.5949 60.7365 21.7526 60.2417 21.8516C59.7531 21.9505 59.2274 22 58.6646 22H50.8623ZM58.3862 19.6621C58.8501 19.6621 59.181 19.6064 59.3789 19.4951C59.5768 19.3776 59.6758 19.1704 59.6758 18.8735C59.6758 18.5767 59.5768 18.3726 59.3789 18.2612C59.181 18.1437 58.8501 18.085 58.3862 18.085H53.9238V19.6621H58.3862ZM58.3862 16.1367C58.6089 16.1367 58.7913 16.1213 58.9336 16.0903C59.0758 16.0594 59.1841 16.0161 59.2583 15.9604C59.3387 15.8986 59.3944 15.8275 59.4253 15.7471C59.4562 15.6605 59.4717 15.5646 59.4717 15.4595C59.4717 15.3543 59.4562 15.2616 59.4253 15.1812C59.3944 15.0946 59.3387 15.0234 59.2583 14.9678C59.1841 14.9059 59.0758 14.8595 58.9336 14.8286C58.7913 14.7977 58.6089 14.7822 58.3862 14.7822H53.9238V16.1367H58.3862ZM75.605 21.063C75.271 21.2918 74.8535 21.4959 74.3525 21.6753C73.9258 21.8299 73.3877 21.9691 72.7383 22.0928C72.0889 22.2165 71.3158 22.2783 70.4189 22.2783C69.6087 22.2783 68.8882 22.2134 68.2573 22.0835C67.6265 21.9536 67.0729 21.7743 66.5967 21.5454C66.1266 21.3166 65.7277 21.0444 65.3999 20.729C65.0721 20.4136 64.8062 20.0703 64.6021 19.6992C64.3979 19.3219 64.2495 18.9261 64.1567 18.5117C64.064 18.0911 64.0176 17.6613 64.0176 17.2222C64.0176 16.548 64.1382 15.9048 64.3794 15.2925C64.6268 14.6802 65.0041 14.1421 65.5112 13.6782C66.0246 13.2144 66.6709 12.8464 67.4502 12.5742C68.2295 12.3021 69.1572 12.166 70.2334 12.166C71.2786 12.166 72.1878 12.3083 72.9609 12.5928C73.7402 12.8711 74.3804 13.2762 74.8813 13.8081C75.3885 14.3338 75.7565 14.9801 75.9854 15.7471C76.2142 16.514 76.307 17.3799 76.2637 18.3447H67.1812C67.1812 18.4808 67.2244 18.6447 67.311 18.8364C67.3976 19.0282 67.5584 19.2137 67.7935 19.3931C68.0347 19.5662 68.3656 19.7178 68.7861 19.8477C69.2067 19.9714 69.751 20.0332 70.4189 20.0332C70.9694 20.0332 71.4735 19.993 71.9312 19.9126C72.395 19.8322 72.8001 19.7425 73.1465 19.6436C73.5423 19.5322 73.9072 19.3993 74.2412 19.2446L75.605 21.063ZM73.2764 16.3779C73.2764 16.2852 73.2547 16.1738 73.2114 16.0439C73.1743 15.9079 73.1094 15.7687 73.0166 15.6265C72.9238 15.478 72.8001 15.3327 72.6455 15.1904C72.4971 15.042 72.3084 14.9121 72.0796 14.8008C71.8569 14.6833 71.591 14.5905 71.2817 14.5225C70.9787 14.4482 70.6292 14.4111 70.2334 14.4111C69.8314 14.4111 69.4788 14.4482 69.1758 14.5225C68.8727 14.5905 68.6068 14.6833 68.3779 14.8008C68.1553 14.9121 67.9666 15.042 67.812 15.1904C67.6636 15.3327 67.543 15.478 67.4502 15.6265C67.3574 15.7687 67.2894 15.9079 67.2461 16.0439C67.209 16.1738 67.1904 16.2852 67.1904 16.3779H73.2764ZM77.3955 12.4443H88.6675V14.7822H84.5112V22H81.459V14.7822H77.3955V12.4443ZM98.2695 12.4443H101.591V22H98.5479V16.3872L93.4824 22H90.1611V12.4443H93.2041V18.0571L98.2695 12.4443ZM115.275 12.4443V22H112.213V14.7822H107.352V17.6675C107.352 18.4282 107.281 19.0653 107.139 19.5786C107.003 20.092 106.817 20.5125 106.582 20.8403C106.347 21.1619 106.075 21.4093 105.766 21.5825C105.456 21.7495 105.132 21.867 104.792 21.9351C104.458 21.9969 104.117 22.0278 103.771 22.0278C103.425 22.0278 103.1 22.0186 102.797 22V19.4766C103.112 19.5013 103.366 19.4797 103.558 19.4116C103.756 19.3374 103.907 19.223 104.012 19.0684C104.124 18.9137 104.198 18.7189 104.235 18.4839C104.272 18.2489 104.291 17.9767 104.291 17.6675V12.4443H115.275ZM125.434 12.4443H128.755V22H125.712V16.3872L120.646 22H117.325V12.4443H120.368V18.0571L125.434 12.4443Z" fill="#415283"/>
<path d="M30.225 29.0781V37H28.7484V30.2891H22.8109V37H21.3344V29.0781H30.225ZM41.6016 28.9219C42.4349 28.9219 43.1693 29.026 43.8047 29.2344C44.4401 29.4427 44.9714 29.7318 45.3984 30.1016C45.8307 30.4661 46.1562 30.901 46.375 31.4062C46.5937 31.9062 46.7031 32.4505 46.7031 33.0391C46.7031 33.6276 46.5937 34.1745 46.375 34.6797C46.1562 35.1797 45.8307 35.6146 45.3984 35.9844C44.9714 36.349 44.4401 36.6354 43.8047 36.8438C43.1693 37.0521 42.4349 37.1562 41.6016 37.1562C40.7682 37.1562 40.0339 37.0521 39.3984 36.8438C38.763 36.6354 38.2292 36.349 37.7969 35.9844C37.3698 35.6146 37.0469 35.1797 36.8281 34.6797C36.6094 34.1745 36.5 33.6276 36.5 33.0391C36.5 32.4505 36.6094 31.9062 36.8281 31.4062C37.0469 30.901 37.3698 30.4661 37.7969 30.1016C38.2292 29.7318 38.763 29.4427 39.3984 29.2344C40.0339 29.026 40.7682 28.9219 41.6016 28.9219ZM41.6016 30.1328C40.9453 30.1328 40.3906 30.2135 39.9375 30.375C39.4844 30.5365 39.1146 30.7526 38.8281 31.0234C38.5469 31.2891 38.3411 31.599 38.2109 31.9531C38.0859 32.3021 38.0234 32.6641 38.0234 33.0391C38.0234 33.4193 38.0859 33.7865 38.2109 34.1406C38.3411 34.4896 38.5469 34.7995 38.8281 35.0703C39.1146 35.3359 39.4844 35.5495 39.9375 35.7109C40.3906 35.8672 40.9453 35.9453 41.6016 35.9453C42.2578 35.9453 42.8125 35.8672 43.2656 35.7109C43.7187 35.5495 44.0859 35.3359 44.3672 35.0703C44.6536 34.7995 44.8594 34.4896 44.9844 34.1406C45.1146 33.7865 45.1797 33.4193 45.1797 33.0391C45.1797 32.6641 45.1146 32.3021 44.9844 31.9531C44.8594 31.599 44.6536 31.2891 44.3672 31.0234C44.0859 30.7526 43.7187 30.5365 43.2656 30.375C42.8125 30.2135 42.2578 30.1328 41.6016 30.1328ZM69.3547 29.0781H70.8312V37H69.3547V33.5H63.3391V37H61.8625V29.0781H63.3391V32.2891H69.3547V29.0781ZM77.7937 29.7109C78.1115 29.5651 78.476 29.4349 78.8875 29.3203C79.2417 29.2214 79.6661 29.1302 80.1609 29.0469C80.6609 28.9635 81.226 28.9219 81.8562 28.9219C82.4969 28.9219 83.0411 28.9688 83.4891 29.0625C83.937 29.151 84.312 29.2734 84.6141 29.4297C84.9161 29.5859 85.1531 29.7682 85.325 29.9766C85.5021 30.1849 85.6349 30.4089 85.7234 30.6484C85.812 30.888 85.8667 31.138 85.8875 31.3984C85.9135 31.6536 85.9266 31.9062 85.9266 32.1562V37H84.45V35.5234C84.3198 35.7318 84.1583 35.9349 83.9656 36.1328C83.7781 36.3255 83.5464 36.5 83.2703 36.6562C82.9943 36.8073 82.6661 36.9271 82.2859 37.0156C81.9057 37.1094 81.4604 37.1562 80.95 37.1562C79.7104 37.1562 78.7599 36.9427 78.0984 36.5156C77.437 36.0885 77.1062 35.4323 77.1062 34.5469C77.1062 34.1042 77.2026 33.7188 77.3953 33.3906C77.5932 33.0625 77.8615 32.7865 78.2 32.5625C78.5437 32.3385 78.9474 32.1615 79.4109 32.0312C79.8745 31.901 80.3745 31.8125 80.9109 31.7656C81.4526 31.7135 82.0177 31.6979 82.6062 31.7188C83.1948 31.7396 83.7859 31.7891 84.3797 31.8672C84.3745 31.5911 84.3484 31.3464 84.3016 31.1328C84.2547 30.9193 84.1453 30.7396 83.9734 30.5938C83.8068 30.4427 83.5568 30.3281 83.2234 30.25C82.8901 30.1719 82.4344 30.1328 81.8562 30.1328C81.3979 30.1328 80.9604 30.1693 80.5437 30.2422C80.1323 30.3099 79.7651 30.3854 79.4422 30.4688C79.0672 30.5625 78.7156 30.6719 78.3875 30.7969L77.7937 29.7109ZM78.6375 34.5469C78.6375 34.75 78.6766 34.9375 78.7547 35.1094C78.838 35.2812 78.9734 35.4297 79.1609 35.5547C79.3484 35.6745 79.5932 35.7708 79.8953 35.8438C80.2026 35.9115 80.5802 35.9453 81.0281 35.9453C81.6531 35.9453 82.1818 35.8672 82.6141 35.7109C83.0464 35.5547 83.3979 35.3568 83.6687 35.1172C83.9448 34.8776 84.1427 34.6146 84.2625 34.3281C84.3875 34.0417 84.45 33.7682 84.45 33.5078V32.8828C84.0177 32.8359 83.5724 32.8047 83.1141 32.7891C82.6609 32.7682 82.2182 32.7708 81.7859 32.7969C81.3536 32.8177 80.9474 32.8672 80.5672 32.9453C80.187 33.0182 79.8536 33.125 79.5672 33.2656C79.2807 33.401 79.0542 33.5755 78.8875 33.7891C78.7208 33.9974 78.6375 34.25 78.6375 34.5469ZM96.225 39.2422C96.0687 39.5078 95.9151 39.7526 95.7641 39.9766C95.6182 40.2057 95.4542 40.4036 95.2719 40.5703C95.0896 40.737 94.8812 40.8698 94.6469 40.9688C94.4177 41.0729 94.1417 41.1354 93.8187 41.1562C93.5062 41.1771 93.2406 41.1693 93.0219 41.1328C92.8031 41.1016 92.6234 41.0625 92.4828 41.0156C92.3161 40.9583 92.1807 40.8906 92.0766 40.8125L92.8266 39.8125C92.8891 39.8438 92.9646 39.8698 93.0531 39.8906C93.126 39.9115 93.2172 39.9271 93.3266 39.9375C93.4359 39.9531 93.5609 39.9557 93.7016 39.9453C93.8474 39.9349 93.975 39.8984 94.0844 39.8359C94.1937 39.7786 94.2953 39.6979 94.3891 39.5938C94.488 39.4896 94.5818 39.362 94.6703 39.2109C94.7641 39.0599 94.8656 38.8854 94.975 38.6875L95.8891 37L91.5687 29.0781H93.2406L96.6703 35.4375L100.1 29.0781H101.772L96.225 39.2422ZM109.133 29.0781V32.6797L114.133 29.0781H116.359L111.938 32.2578L116.359 37H114.508L110.828 33.0547L109.133 34.2734V37H107.656V29.0781H109.133ZM130.416 35.9609C130.181 36.1901 129.869 36.3906 129.478 36.5625C129.311 36.6354 129.121 36.7083 128.908 36.7812C128.694 36.8542 128.452 36.9193 128.181 36.9766C127.91 37.0286 127.614 37.0703 127.291 37.1016C126.968 37.138 126.614 37.1562 126.228 37.1562C125.431 37.1562 124.733 37.0521 124.134 36.8438C123.541 36.6354 123.046 36.349 122.65 35.9844C122.254 35.6146 121.957 35.1797 121.759 34.6797C121.561 34.1745 121.463 33.6276 121.463 33.0391C121.463 32.4505 121.561 31.9062 121.759 31.4062C121.957 30.901 122.254 30.4661 122.65 30.1016C123.046 29.7318 123.541 29.4427 124.134 29.2344C124.733 29.026 125.431 28.9219 126.228 28.9219C127.811 28.9219 128.999 29.3229 129.791 30.125C130.582 30.9271 130.978 32.1406 130.978 33.7656H123.048C123.069 34.0469 123.145 34.3203 123.275 34.5859C123.405 34.8464 123.598 35.0781 123.853 35.2812C124.108 35.4844 124.431 35.6458 124.822 35.7656C125.218 35.8854 125.686 35.9453 126.228 35.9453C126.765 35.9453 127.233 35.901 127.634 35.8125C128.041 35.7188 128.384 35.6146 128.666 35.5C128.989 35.3646 129.27 35.2135 129.509 35.0469L130.416 35.9609ZM129.4 32.4766C129.374 32.2005 129.306 31.9245 129.197 31.6484C129.088 31.3672 128.91 31.1146 128.666 30.8906C128.426 30.6667 128.108 30.4844 127.713 30.3438C127.317 30.2031 126.822 30.1328 126.228 30.1328C125.634 30.1328 125.14 30.2031 124.744 30.3438C124.348 30.4844 124.028 30.6667 123.783 30.8906C123.543 31.1146 123.366 31.3672 123.252 31.6484C123.142 31.9245 123.077 32.2005 123.056 32.4766H129.4Z" fill="#415283"/>
<line x1="154.5" y1="9" x2="154.5" y2="39" stroke="#415283"/>
<path d="M176.654 19.467C177.096 19.467 177.486 19.389 177.824 19.233C178.171 19.0683 178.461 18.843 178.695 18.557C178.929 18.2623 179.107 17.9157 179.228 17.517C179.349 17.1183 179.41 16.6807 179.41 16.204V14.722C179.41 14.2453 179.349 13.8077 179.228 13.409C179.107 13.0103 178.929 12.668 178.695 12.382C178.461 12.0873 178.171 11.862 177.824 11.706C177.486 11.5413 177.096 11.459 176.654 11.459C176.212 11.459 175.818 11.5413 175.471 11.706C175.133 11.862 174.847 12.0873 174.613 12.382C174.379 12.668 174.201 13.0103 174.08 13.409C173.959 13.8077 173.898 14.2453 173.898 14.722V16.204C173.898 16.6807 173.959 17.1183 174.08 17.517C174.201 17.9157 174.379 18.2623 174.613 18.557C174.847 18.843 175.133 19.0683 175.471 19.233C175.818 19.389 176.212 19.467 176.654 19.467ZM176.654 20.156C176.056 20.156 175.51 20.0477 175.016 19.831C174.522 19.6143 174.097 19.3023 173.742 18.895C173.395 18.4877 173.127 17.998 172.936 17.426C172.745 16.8453 172.65 16.191 172.65 15.463C172.65 14.735 172.745 14.085 172.936 13.513C173.127 12.9323 173.395 12.4383 173.742 12.031C174.097 11.6237 174.522 11.3117 175.016 11.095C175.51 10.8783 176.056 10.77 176.654 10.77C177.252 10.77 177.798 10.8783 178.292 11.095C178.786 11.3117 179.206 11.6237 179.553 12.031C179.908 12.4383 180.181 12.9323 180.372 13.513C180.563 14.085 180.658 14.735 180.658 15.463C180.658 16.191 180.563 16.8453 180.372 17.426C180.181 17.998 179.908 18.4877 179.553 18.895C179.206 19.3023 178.786 19.6143 178.292 19.831C177.798 20.0477 177.252 20.156 176.654 20.156ZM183.007 19.402H184.229V13.929H182.591V15.268H181.811V13.292H187.713V15.268H186.933V13.929H185.295V19.402H186.517V20H183.007V19.402ZM188.811 19.402H189.773V13.877H188.811V13.292H192.555C193.179 13.292 193.66 13.4393 193.998 13.734C194.336 14.0287 194.505 14.4143 194.505 14.891C194.505 15.385 194.371 15.7533 194.102 15.996C193.842 16.2387 193.526 16.399 193.153 16.477V16.529C193.344 16.5463 193.53 16.594 193.712 16.672C193.903 16.75 194.072 16.8583 194.219 16.997C194.366 17.127 194.488 17.2917 194.583 17.491C194.678 17.6817 194.726 17.907 194.726 18.167C194.726 18.7823 194.535 19.2417 194.154 19.545C193.781 19.8483 193.257 20 192.581 20H188.811V19.402ZM192.477 19.363C192.85 19.363 193.127 19.2677 193.309 19.077C193.5 18.8777 193.595 18.6263 193.595 18.323V17.946C193.595 17.6427 193.5 17.3957 193.309 17.205C193.118 17.0057 192.841 16.906 192.477 16.906H190.839V19.363H192.477ZM192.347 16.269C192.676 16.269 192.928 16.178 193.101 15.996C193.283 15.8053 193.374 15.5713 193.374 15.294V14.904C193.374 14.6267 193.283 14.397 193.101 14.215C192.928 14.0243 192.676 13.929 192.347 13.929H190.839V16.269H192.347ZM199.126 20.156C198.649 20.156 198.22 20.0737 197.839 19.909C197.466 19.7357 197.15 19.4973 196.89 19.194C196.63 18.8907 196.431 18.5223 196.292 18.089C196.153 17.6557 196.084 17.1747 196.084 16.646C196.084 16.126 196.158 15.6537 196.305 15.229C196.461 14.7957 196.669 14.423 196.929 14.111C197.198 13.799 197.514 13.5607 197.878 13.396C198.242 13.2227 198.641 13.136 199.074 13.136C199.516 13.136 199.91 13.214 200.257 13.37C200.604 13.526 200.894 13.747 201.128 14.033C201.371 14.3103 201.557 14.644 201.687 15.034C201.817 15.424 201.882 15.8487 201.882 16.308V16.607H197.267V16.945C197.267 17.6817 197.449 18.2623 197.813 18.687C198.186 19.1117 198.68 19.324 199.295 19.324C199.832 19.324 200.257 19.2157 200.569 18.999C200.89 18.7737 201.141 18.4833 201.323 18.128L201.752 18.401C201.665 18.6263 201.544 18.8473 201.388 19.064C201.241 19.272 201.059 19.4583 200.842 19.623C200.625 19.779 200.374 19.9047 200.088 20C199.802 20.104 199.481 20.156 199.126 20.156ZM197.267 16.009H200.764V15.879C200.764 15.5757 200.729 15.294 200.66 15.034C200.599 14.774 200.5 14.5487 200.361 14.358C200.222 14.1673 200.045 14.02 199.828 13.916C199.62 13.8033 199.369 13.747 199.074 13.747C198.779 13.747 198.519 13.799 198.294 13.903C198.069 14.007 197.878 14.1543 197.722 14.345C197.575 14.5357 197.462 14.761 197.384 15.021C197.306 15.2723 197.267 15.5497 197.267 15.853V16.009ZM206.605 19.402H207.827V16.698H207.788C207.58 16.9493 207.315 17.153 206.995 17.309C206.683 17.465 206.293 17.543 205.825 17.543C205.149 17.543 204.642 17.387 204.304 17.075C203.966 16.763 203.797 16.2517 203.797 15.541V13.877H202.835V13.292H205.76V13.877H204.863V15.437C204.863 15.931 204.967 16.282 205.175 16.49C205.391 16.698 205.764 16.802 206.293 16.802C206.752 16.802 207.12 16.7197 207.398 16.555C207.684 16.3903 207.827 16.1433 207.827 15.814V13.877H206.93V13.292H209.855V13.877H208.893V19.402H209.855V20H206.605V19.402ZM213.144 20.156C212.52 20.156 212.03 19.9957 211.675 19.675C211.328 19.3457 211.155 18.8993 211.155 18.336C211.155 18.0153 211.207 17.7337 211.311 17.491C211.415 17.2397 211.584 17.0317 211.818 16.867C212.061 16.7023 212.373 16.5767 212.754 16.49C213.135 16.4033 213.599 16.36 214.145 16.36H215.107V15.372C215.107 14.8433 214.977 14.4403 214.717 14.163C214.466 13.877 214.084 13.734 213.573 13.734C213.348 13.734 213.14 13.7557 212.949 13.799C212.758 13.8337 212.602 13.8857 212.481 13.955V13.981C212.576 14.033 212.667 14.111 212.754 14.215C212.849 14.319 212.897 14.4663 212.897 14.657C212.897 14.8823 212.832 15.06 212.702 15.19C212.572 15.3113 212.399 15.372 212.182 15.372C211.974 15.372 211.801 15.3113 211.662 15.19C211.532 15.06 211.467 14.8693 211.467 14.618C211.467 14.4273 211.523 14.2453 211.636 14.072C211.749 13.89 211.909 13.7297 212.117 13.591C212.325 13.4523 212.581 13.344 212.884 13.266C213.196 13.1793 213.547 13.136 213.937 13.136C214.639 13.136 215.185 13.318 215.575 13.682C215.974 14.046 216.173 14.5573 216.173 15.216V19.441H217.148V19.896C217.053 19.9653 216.923 20.026 216.758 20.078C216.602 20.13 216.424 20.156 216.225 20.156C215.887 20.156 215.627 20.0607 215.445 19.87C215.263 19.6793 215.172 19.4237 215.172 19.103V19.012H215.107C215.046 19.1593 214.964 19.3023 214.86 19.441C214.765 19.5797 214.639 19.701 214.483 19.805C214.327 19.909 214.136 19.9913 213.911 20.052C213.694 20.1213 213.439 20.156 213.144 20.156ZM213.599 19.441C214.015 19.441 214.37 19.337 214.665 19.129C214.96 18.9123 215.107 18.583 215.107 18.141V16.88H214.262C213.889 16.88 213.577 16.9103 213.326 16.971C213.075 17.023 212.875 17.1053 212.728 17.218C212.581 17.322 212.472 17.452 212.403 17.608C212.342 17.764 212.312 17.946 212.312 18.154V18.427C212.312 18.7563 212.425 19.0077 212.65 19.181C212.875 19.3543 213.192 19.441 213.599 19.441ZM221.229 20.156C220.752 20.156 220.323 20.0737 219.942 19.909C219.569 19.7357 219.253 19.4973 218.993 19.194C218.733 18.8907 218.533 18.5223 218.395 18.089C218.256 17.6557 218.187 17.1747 218.187 16.646C218.187 16.126 218.26 15.6537 218.408 15.229C218.564 14.7957 218.772 14.423 219.032 14.111C219.3 13.799 219.617 13.5607 219.981 13.396C220.345 13.2227 220.743 13.136 221.177 13.136C221.619 13.136 222.013 13.214 222.36 13.37C222.706 13.526 222.997 13.747 223.231 14.033C223.473 14.3103 223.66 14.644 223.79 15.034C223.92 15.424 223.985 15.8487 223.985 16.308V16.607H219.37V16.945C219.37 17.6817 219.552 18.2623 219.916 18.687C220.288 19.1117 220.782 19.324 221.398 19.324C221.935 19.324 222.36 19.2157 222.672 18.999C222.992 18.7737 223.244 18.4833 223.426 18.128L223.855 18.401C223.768 18.6263 223.647 18.8473 223.491 19.064C223.343 19.272 223.161 19.4583 222.945 19.623C222.728 19.779 222.477 19.9047 222.191 20C221.905 20.104 221.584 20.156 221.229 20.156ZM219.37 16.009H222.867V15.879C222.867 15.5757 222.832 15.294 222.763 15.034C222.702 14.774 222.602 14.5487 222.464 14.358C222.325 14.1673 222.147 14.02 221.931 13.916C221.723 13.8033 221.471 13.747 221.177 13.747C220.882 13.747 220.622 13.799 220.397 13.903C220.171 14.007 219.981 14.1543 219.825 14.345C219.677 14.5357 219.565 14.761 219.487 15.021C219.409 15.2723 219.37 15.5497 219.37 15.853V16.009ZM225.221 19.402H226.196V13.877H225.221V13.292H227.587L229.511 17.14H229.563L231.474 13.292H233.71V13.877H232.748V19.402H233.71V20H230.707V19.402H231.682V14.28H231.643L231.162 15.268L229.329 18.96L227.47 15.268L227.002 14.28H226.963V19.402H227.925V20H225.221V19.402ZM238.031 19.402H238.993V13.877H238.031V13.292H241.021V13.877H240.059V16.282H243.283V13.877H242.321V13.292H245.311V13.877H244.349V19.402H245.311V20H242.321V19.402H243.283V16.919H240.059V19.402H241.021V20H238.031V19.402ZM248.602 20.156C247.978 20.156 247.488 19.9957 247.133 19.675C246.786 19.3457 246.613 18.8993 246.613 18.336C246.613 18.0153 246.665 17.7337 246.769 17.491C246.873 17.2397 247.042 17.0317 247.276 16.867C247.519 16.7023 247.831 16.5767 248.212 16.49C248.593 16.4033 249.057 16.36 249.603 16.36H250.565V15.372C250.565 14.8433 250.435 14.4403 250.175 14.163C249.924 13.877 249.542 13.734 249.031 13.734C248.806 13.734 248.598 13.7557 248.407 13.799C248.216 13.8337 248.06 13.8857 247.939 13.955V13.981C248.034 14.033 248.125 14.111 248.212 14.215C248.307 14.319 248.355 14.4663 248.355 14.657C248.355 14.8823 248.29 15.06 248.16 15.19C248.03 15.3113 247.857 15.372 247.64 15.372C247.432 15.372 247.259 15.3113 247.12 15.19C246.99 15.06 246.925 14.8693 246.925 14.618C246.925 14.4273 246.981 14.2453 247.094 14.072C247.207 13.89 247.367 13.7297 247.575 13.591C247.783 13.4523 248.039 13.344 248.342 13.266C248.654 13.1793 249.005 13.136 249.395 13.136C250.097 13.136 250.643 13.318 251.033 13.682C251.432 14.046 251.631 14.5573 251.631 15.216V19.441H252.606V19.896C252.511 19.9653 252.381 20.026 252.216 20.078C252.06 20.13 251.882 20.156 251.683 20.156C251.345 20.156 251.085 20.0607 250.903 19.87C250.721 19.6793 250.63 19.4237 250.63 19.103V19.012H250.565C250.504 19.1593 250.422 19.3023 250.318 19.441C250.223 19.5797 250.097 19.701 249.941 19.805C249.785 19.909 249.594 19.9913 249.369 20.052C249.152 20.1213 248.897 20.156 248.602 20.156ZM249.057 19.441C249.473 19.441 249.828 19.337 250.123 19.129C250.418 18.9123 250.565 18.583 250.565 18.141V16.88H249.72C249.347 16.88 249.035 16.9103 248.784 16.971C248.533 17.023 248.333 17.1053 248.186 17.218C248.039 17.322 247.93 17.452 247.861 17.608C247.8 17.764 247.77 17.946 247.77 18.154V18.427C247.77 18.7563 247.883 19.0077 248.108 19.181C248.333 19.3543 248.65 19.441 249.057 19.441ZM254.532 22.756C254.09 22.756 253.769 22.6607 253.57 22.47C253.37 22.288 253.271 22.0453 253.271 21.742C253.271 21.5167 253.331 21.3347 253.453 21.196C253.574 21.0573 253.747 20.988 253.973 20.988C254.172 20.988 254.324 21.0443 254.428 21.157C254.54 21.2783 254.597 21.4387 254.597 21.638C254.597 21.7853 254.558 21.9023 254.48 21.989C254.41 22.0843 254.332 22.145 254.246 22.171V22.21C254.341 22.2447 254.454 22.262 254.584 22.262C254.809 22.262 255.03 22.1623 255.247 21.963C255.463 21.7723 255.658 21.456 255.832 21.014L256.105 20.273L253.635 13.89H252.959V13.292H255.741V13.89H254.805L256.612 18.804H256.664L258.419 13.89H257.483V13.292H259.849V13.89H259.173L256.391 21.118C256.209 21.5947 255.962 21.9847 255.65 22.288C255.346 22.6 254.974 22.756 254.532 22.756ZM264.203 19.402H265.425V16.698H265.386C265.178 16.9493 264.914 17.153 264.593 17.309C264.281 17.465 263.891 17.543 263.423 17.543C262.747 17.543 262.24 17.387 261.902 17.075C261.564 16.763 261.395 16.2517 261.395 15.541V13.877H260.433V13.292H263.358V13.877H262.461V15.437C262.461 15.931 262.565 16.282 262.773 16.49C262.99 16.698 263.363 16.802 263.891 16.802C264.351 16.802 264.719 16.7197 264.996 16.555C265.282 16.3903 265.425 16.1433 265.425 15.814V13.877H264.528V13.292H267.453V13.877H266.491V19.402H267.453V20H264.203V19.402ZM268.754 19.402H269.716V13.877H268.754V13.292H271.744V13.877H270.782V16.282H274.006V13.877H273.044V13.292H276.034V13.877H275.072V19.402H276.034V20H273.044V19.402H274.006V16.919H270.782V19.402H271.744V20H268.754V19.402ZM280.352 19.519C280.672 19.519 280.95 19.467 281.184 19.363C281.426 19.2503 281.621 19.0987 281.769 18.908C281.925 18.7087 282.037 18.479 282.107 18.219C282.185 17.9503 282.224 17.66 282.224 17.348V15.944C282.224 15.632 282.185 15.346 282.107 15.086C282.037 14.8173 281.925 14.5877 281.769 14.397C281.621 14.1977 281.426 14.046 281.184 13.942C280.95 13.8293 280.672 13.773 280.352 13.773C280.022 13.773 279.741 13.8293 279.507 13.942C279.273 14.046 279.078 14.1977 278.922 14.397C278.774 14.5877 278.662 14.8173 278.584 15.086C278.514 15.346 278.48 15.632 278.48 15.944V17.348C278.48 17.66 278.514 17.9503 278.584 18.219C278.662 18.479 278.774 18.7087 278.922 18.908C279.078 19.0987 279.273 19.2503 279.507 19.363C279.741 19.467 280.022 19.519 280.352 19.519ZM280.352 20.156C279.892 20.156 279.472 20.0737 279.091 19.909C278.709 19.7443 278.384 19.5103 278.116 19.207C277.847 18.895 277.639 18.5267 277.492 18.102C277.344 17.6687 277.271 17.1833 277.271 16.646C277.271 16.1173 277.344 15.6363 277.492 15.203C277.639 14.7697 277.847 14.4013 278.116 14.098C278.384 13.786 278.709 13.5477 279.091 13.383C279.472 13.2183 279.892 13.136 280.352 13.136C280.811 13.136 281.231 13.2183 281.613 13.383C281.994 13.5477 282.319 13.786 282.588 14.098C282.856 14.4013 283.064 14.7697 283.212 15.203C283.359 15.6363 283.433 16.1173 283.433 16.646C283.433 17.1833 283.359 17.6687 283.212 18.102C283.064 18.5267 282.856 18.895 282.588 19.207C282.319 19.5103 281.994 19.7443 281.613 19.909C281.231 20.0737 280.811 20.156 280.352 20.156ZM284.202 21.768C284.497 21.508 284.744 21.235 284.943 20.949C285.143 20.6717 285.273 20.4073 285.333 20.156H285.307C285.065 20.156 284.878 20.078 284.748 19.922C284.618 19.766 284.553 19.5883 284.553 19.389V19.311C284.553 19.0857 284.627 18.8993 284.774 18.752C284.922 18.596 285.117 18.518 285.359 18.518C285.611 18.518 285.806 18.6003 285.944 18.765C286.092 18.9297 286.165 19.129 286.165 19.363V19.48C286.165 19.6707 286.131 19.87 286.061 20.078C285.992 20.286 285.897 20.494 285.775 20.702C285.663 20.91 285.524 21.105 285.359 21.287C285.203 21.469 285.034 21.6293 284.852 21.768H284.202ZM175.562 37.156C174.765 37.156 174.106 36.8873 173.586 36.35C173.274 36.0207 173.027 35.5917 172.845 35.063C172.672 34.5343 172.585 33.893 172.585 33.139C172.585 32.5063 172.607 31.9517 172.65 31.475C172.693 30.9897 172.758 30.5693 172.845 30.214C172.94 29.85 173.057 29.538 173.196 29.278C173.335 29.018 173.499 28.7883 173.69 28.589C173.811 28.459 173.946 28.355 174.093 28.277C174.24 28.1903 174.409 28.121 174.6 28.069C174.799 28.0083 175.029 27.9607 175.289 27.926C175.558 27.8913 175.87 27.8523 176.225 27.809C176.554 27.7657 176.827 27.731 177.044 27.705C177.261 27.679 177.443 27.653 177.59 27.627L177.655 27.12H178.175C178.227 27.276 178.253 27.4623 178.253 27.679C178.253 27.8783 178.227 28.0473 178.175 28.186C178.132 28.316 178.062 28.433 177.967 28.537C177.906 28.5977 177.833 28.654 177.746 28.706C177.659 28.7493 177.542 28.7927 177.395 28.836C177.256 28.8707 177.079 28.901 176.862 28.927C176.654 28.953 176.394 28.979 176.082 29.005C175.77 29.0223 175.501 29.044 175.276 29.07C175.059 29.0873 174.869 29.1133 174.704 29.148C174.548 29.1827 174.414 29.2303 174.301 29.291C174.188 29.343 174.084 29.4123 173.989 29.499C173.885 29.6117 173.794 29.7373 173.716 29.876C173.638 30.0147 173.569 30.1793 173.508 30.37C173.456 30.5607 173.408 30.786 173.365 31.046C173.33 31.306 173.3 31.6137 173.274 31.969H173.326C173.543 31.4663 173.837 31.085 174.21 30.825C174.583 30.5563 175.072 30.422 175.679 30.422C176.546 30.422 177.235 30.7037 177.746 31.267C178.257 31.8303 178.513 32.6493 178.513 33.724C178.513 34.244 178.444 34.7163 178.305 35.141C178.166 35.5657 177.967 35.9297 177.707 36.233C177.456 36.5277 177.148 36.7573 176.784 36.922C176.42 37.078 176.013 37.156 175.562 37.156ZM175.549 36.519C175.852 36.519 176.112 36.467 176.329 36.363C176.554 36.259 176.736 36.1117 176.875 35.921C177.022 35.7303 177.131 35.505 177.2 35.245C177.269 34.985 177.304 34.7033 177.304 34.4V33.178C177.304 32.8747 177.269 32.593 177.2 32.333C177.131 32.073 177.022 31.852 176.875 31.67C176.736 31.4793 176.554 31.332 176.329 31.228C176.112 31.1153 175.852 31.059 175.549 31.059C175.246 31.059 174.981 31.1153 174.756 31.228C174.539 31.332 174.357 31.4793 174.21 31.67C174.071 31.852 173.967 32.073 173.898 32.333C173.829 32.593 173.794 32.8747 173.794 33.178V34.4C173.794 34.7033 173.829 34.985 173.898 35.245C173.967 35.505 174.071 35.7303 174.21 35.921C174.357 36.1117 174.539 36.259 174.756 36.363C174.981 36.467 175.246 36.519 175.549 36.519ZM182.851 37.156C182.374 37.156 181.945 37.0737 181.564 36.909C181.191 36.7357 180.875 36.4973 180.615 36.194C180.355 35.8907 180.155 35.5223 180.017 35.089C179.878 34.6557 179.809 34.1747 179.809 33.646C179.809 33.126 179.882 32.6537 180.03 32.229C180.186 31.7957 180.394 31.423 180.654 31.111C180.922 30.799 181.239 30.5607 181.603 30.396C181.967 30.2227 182.365 30.136 182.799 30.136C183.241 30.136 183.635 30.214 183.982 30.37C184.328 30.526 184.619 30.747 184.853 31.033C185.095 31.3103 185.282 31.644 185.412 32.034C185.542 32.424 185.607 32.8487 185.607 33.308V33.607H180.992V33.945C180.992 34.6817 181.174 35.2623 181.538 35.687C181.91 36.1117 182.404 36.324 183.02 36.324C183.557 36.324 183.982 36.2157 184.294 35.999C184.614 35.7737 184.866 35.4833 185.048 35.128L185.477 35.401C185.39 35.6263 185.269 35.8473 185.113 36.064C184.965 36.272 184.783 36.4583 184.567 36.623C184.35 36.779 184.099 36.9047 183.813 37C183.527 37.104 183.206 37.156 182.851 37.156ZM180.992 33.009H184.489V32.879C184.489 32.5757 184.454 32.294 184.385 32.034C184.324 31.774 184.224 31.5487 184.086 31.358C183.947 31.1673 183.769 31.02 183.553 30.916C183.345 30.8033 183.093 30.747 182.799 30.747C182.504 30.747 182.244 30.799 182.019 30.903C181.793 31.007 181.603 31.1543 181.447 31.345C181.299 31.5357 181.187 31.761 181.109 32.021C181.031 32.2723 180.992 32.5497 180.992 32.853V33.009ZM189.3 37.156C188.91 37.156 188.559 37.1127 188.247 37.026C187.944 36.9393 187.684 36.8267 187.467 36.688C187.251 36.5407 187.082 36.3717 186.96 36.181C186.848 35.9817 186.791 35.778 186.791 35.57C186.791 35.3187 186.861 35.1193 186.999 34.972C187.138 34.8247 187.32 34.751 187.545 34.751C187.788 34.751 187.97 34.8247 188.091 34.972C188.213 35.1193 188.273 35.297 188.273 35.505C188.273 35.6697 188.23 35.817 188.143 35.947C188.065 36.0683 187.948 36.1637 187.792 36.233V36.259C187.94 36.3543 188.117 36.428 188.325 36.48C188.542 36.532 188.832 36.558 189.196 36.558C189.742 36.558 190.15 36.441 190.418 36.207C190.696 35.973 190.834 35.6913 190.834 35.362V35.037C190.834 34.725 190.726 34.4563 190.509 34.231C190.293 34.0057 189.955 33.893 189.495 33.893H188.546V33.256H189.43C189.812 33.256 190.111 33.1563 190.327 32.957C190.553 32.749 190.665 32.4803 190.665 32.151V31.891C190.665 31.5617 190.557 31.2843 190.34 31.059C190.132 30.8337 189.82 30.721 189.404 30.721C188.919 30.721 188.525 30.8337 188.221 31.059C187.927 31.2843 187.779 31.5833 187.779 31.956V32.333H186.999V30.292H187.779V30.929H187.818C187.983 30.7037 188.2 30.5173 188.468 30.37C188.746 30.214 189.105 30.136 189.547 30.136C190.267 30.136 190.821 30.2963 191.211 30.617C191.601 30.929 191.796 31.358 191.796 31.904C191.796 32.32 191.671 32.6623 191.419 32.931C191.168 33.191 190.847 33.3687 190.457 33.464V33.516C190.917 33.6113 191.281 33.7933 191.549 34.062C191.818 34.3307 191.952 34.6947 191.952 35.154C191.952 35.4573 191.883 35.7347 191.744 35.986C191.614 36.2287 191.428 36.4367 191.185 36.61C190.951 36.7833 190.67 36.9177 190.34 37.013C190.02 37.1083 189.673 37.156 189.3 37.156ZM196.39 36.402H197.352V30.877H196.39V30.292H200.134C200.758 30.292 201.239 30.4393 201.577 30.734C201.915 31.0287 202.084 31.4143 202.084 31.891C202.084 32.385 201.95 32.7533 201.681 32.996C201.421 33.2387 201.105 33.399 200.732 33.477V33.529C200.923 33.5463 201.109 33.594 201.291 33.672C201.482 33.75 201.651 33.8583 201.798 33.997C201.946 34.127 202.067 34.2917 202.162 34.491C202.258 34.6817 202.305 34.907 202.305 35.167C202.305 35.7823 202.115 36.2417 201.733 36.545C201.361 36.8483 200.836 37 200.16 37H196.39V36.402ZM200.056 36.363C200.429 36.363 200.706 36.2677 200.888 36.077C201.079 35.8777 201.174 35.6263 201.174 35.323V34.946C201.174 34.6427 201.079 34.3957 200.888 34.205C200.698 34.0057 200.42 33.906 200.056 33.906H198.418V36.363H200.056ZM199.926 33.269C200.256 33.269 200.507 33.178 200.68 32.996C200.862 32.8053 200.953 32.5713 200.953 32.294V31.904C200.953 31.6267 200.862 31.397 200.68 31.215C200.507 31.0243 200.256 30.929 199.926 30.929H198.418V33.269H199.926ZM206.744 36.519C207.065 36.519 207.342 36.467 207.576 36.363C207.819 36.2503 208.014 36.0987 208.161 35.908C208.317 35.7087 208.43 35.479 208.499 35.219C208.577 34.9503 208.616 34.66 208.616 34.348V32.944C208.616 32.632 208.577 32.346 208.499 32.086C208.43 31.8173 208.317 31.5877 208.161 31.397C208.014 31.1977 207.819 31.046 207.576 30.942C207.342 30.8293 207.065 30.773 206.744 30.773C206.415 30.773 206.133 30.8293 205.899 30.942C205.665 31.046 205.47 31.1977 205.314 31.397C205.167 31.5877 205.054 31.8173 204.976 32.086C204.907 32.346 204.872 32.632 204.872 32.944V34.348C204.872 34.66 204.907 34.9503 204.976 35.219C205.054 35.479 205.167 35.7087 205.314 35.908C205.47 36.0987 205.665 36.2503 205.899 36.363C206.133 36.467 206.415 36.519 206.744 36.519ZM206.744 37.156C206.285 37.156 205.864 37.0737 205.483 36.909C205.102 36.7443 204.777 36.5103 204.508 36.207C204.239 35.895 204.031 35.5267 203.884 35.102C203.737 34.6687 203.663 34.1833 203.663 33.646C203.663 33.1173 203.737 32.6363 203.884 32.203C204.031 31.7697 204.239 31.4013 204.508 31.098C204.777 30.786 205.102 30.5477 205.483 30.383C205.864 30.2183 206.285 30.136 206.744 30.136C207.203 30.136 207.624 30.2183 208.005 30.383C208.386 30.5477 208.711 30.786 208.98 31.098C209.249 31.4013 209.457 31.7697 209.604 32.203C209.751 32.6363 209.825 33.1173 209.825 33.646C209.825 34.1833 209.751 34.6687 209.604 35.102C209.457 35.5267 209.249 35.895 208.98 36.207C208.711 36.5103 208.386 36.7443 208.005 36.909C207.624 37.0737 207.203 37.156 206.744 37.156ZM211.053 36.402H212.015V30.877H211.053V30.292H218.346V30.877H217.384V36.402H218.346V37H215.356V36.402H216.318V30.929H213.081V36.402H214.043V37H211.053V36.402ZM219.518 39.002H220.48V31.137L219.518 30.968V30.526L221.546 30.136V31.306H221.598C221.745 30.9853 221.979 30.7123 222.3 30.487C222.621 30.253 223.045 30.136 223.574 30.136C224.406 30.136 225.069 30.4393 225.563 31.046C226.066 31.644 226.317 32.5107 226.317 33.646C226.317 34.7813 226.066 35.6523 225.563 36.259C225.069 36.857 224.406 37.156 223.574 37.156C223.054 37.156 222.629 37.0433 222.3 36.818C221.979 36.5927 221.745 36.3197 221.598 35.999H221.546V39.002H222.768V39.6H219.518V39.002ZM223.262 36.415C223.86 36.415 224.324 36.2157 224.653 35.817C224.991 35.4097 225.16 34.868 225.16 34.192V33.1C225.16 32.424 224.991 31.8867 224.653 31.488C224.324 31.0807 223.86 30.877 223.262 30.877C223.054 30.877 222.846 30.9073 222.638 30.968C222.43 31.0287 222.244 31.1153 222.079 31.228C221.923 31.3407 221.793 31.4837 221.689 31.657C221.594 31.8217 221.546 32.008 221.546 32.216V35.076C221.546 35.284 221.594 35.4747 221.689 35.648C221.793 35.8127 221.923 35.9513 222.079 36.064C222.244 36.1767 222.43 36.2633 222.638 36.324C222.846 36.3847 223.054 36.415 223.262 36.415ZM230.764 36.519C231.084 36.519 231.362 36.467 231.596 36.363C231.838 36.2503 232.033 36.0987 232.181 35.908C232.337 35.7087 232.449 35.479 232.519 35.219C232.597 34.9503 232.636 34.66 232.636 34.348V32.944C232.636 32.632 232.597 32.346 232.519 32.086C232.449 31.8173 232.337 31.5877 232.181 31.397C232.033 31.1977 231.838 31.046 231.596 30.942C231.362 30.8293 231.084 30.773 230.764 30.773C230.434 30.773 230.153 30.8293 229.919 30.942C229.685 31.046 229.49 31.1977 229.334 31.397C229.186 31.5877 229.074 31.8173 228.996 32.086C228.926 32.346 228.892 32.632 228.892 32.944V34.348C228.892 34.66 228.926 34.9503 228.996 35.219C229.074 35.479 229.186 35.7087 229.334 35.908C229.49 36.0987 229.685 36.2503 229.919 36.363C230.153 36.467 230.434 36.519 230.764 36.519ZM230.764 37.156C230.304 37.156 229.884 37.0737 229.503 36.909C229.121 36.7443 228.796 36.5103 228.528 36.207C228.259 35.895 228.051 35.5267 227.904 35.102C227.756 34.6687 227.683 34.1833 227.683 33.646C227.683 33.1173 227.756 32.6363 227.904 32.203C228.051 31.7697 228.259 31.4013 228.528 31.098C228.796 30.786 229.121 30.5477 229.503 30.383C229.884 30.2183 230.304 30.136 230.764 30.136C231.223 30.136 231.643 30.2183 232.025 30.383C232.406 30.5477 232.731 30.786 233 31.098C233.268 31.4013 233.476 31.7697 233.624 32.203C233.771 32.6363 233.845 33.1173 233.845 33.646C233.845 34.1833 233.771 34.6687 233.624 35.102C233.476 35.5267 233.268 35.895 233 36.207C232.731 36.5103 232.406 36.7443 232.025 36.909C231.643 37.0737 231.223 37.156 230.764 37.156ZM238.19 37.156C237.704 37.156 237.271 37.0737 236.89 36.909C236.517 36.7357 236.201 36.4973 235.941 36.194C235.681 35.882 235.481 35.5137 235.343 35.089C235.204 34.6557 235.135 34.1747 235.135 33.646C235.135 33.1087 235.208 32.6233 235.356 32.19C235.512 31.7567 235.728 31.3883 236.006 31.085C236.283 30.7817 236.612 30.5477 236.994 30.383C237.384 30.2183 237.813 30.136 238.281 30.136C238.983 30.136 239.537 30.2877 239.945 30.591C240.361 30.8857 240.569 31.2627 240.569 31.722C240.569 31.9993 240.495 32.216 240.348 32.372C240.209 32.528 240.014 32.606 239.763 32.606C239.494 32.606 239.295 32.528 239.165 32.372C239.035 32.216 238.97 32.0297 238.97 31.813C238.97 31.6223 239.017 31.4577 239.113 31.319C239.208 31.1803 239.342 31.072 239.516 30.994V30.955C239.403 30.8857 239.256 30.8337 239.074 30.799C238.9 30.7643 238.675 30.747 238.398 30.747C238.094 30.747 237.813 30.8033 237.553 30.916C237.301 31.0287 237.085 31.189 236.903 31.397C236.721 31.5963 236.578 31.8347 236.474 32.112C236.37 32.3807 236.318 32.6753 236.318 32.996V33.958C236.318 34.3133 236.365 34.6383 236.461 34.933C236.556 35.219 236.69 35.466 236.864 35.674C237.046 35.882 237.258 36.0423 237.501 36.155C237.752 36.2677 238.034 36.324 238.346 36.324C238.874 36.324 239.29 36.2157 239.594 35.999C239.897 35.7737 240.14 35.4833 240.322 35.128L240.738 35.401C240.66 35.6263 240.547 35.8473 240.4 36.064C240.252 36.272 240.075 36.4583 239.867 36.623C239.659 36.779 239.412 36.9047 239.126 37C238.848 37.104 238.536 37.156 238.19 37.156ZM244.792 36.519C245.113 36.519 245.39 36.467 245.624 36.363C245.867 36.2503 246.062 36.0987 246.209 35.908C246.365 35.7087 246.478 35.479 246.547 35.219C246.625 34.9503 246.664 34.66 246.664 34.348V32.944C246.664 32.632 246.625 32.346 246.547 32.086C246.478 31.8173 246.365 31.5877 246.209 31.397C246.062 31.1977 245.867 31.046 245.624 30.942C245.39 30.8293 245.113 30.773 244.792 30.773C244.463 30.773 244.181 30.8293 243.947 30.942C243.713 31.046 243.518 31.1977 243.362 31.397C243.215 31.5877 243.102 31.8173 243.024 32.086C242.955 32.346 242.92 32.632 242.92 32.944V34.348C242.92 34.66 242.955 34.9503 243.024 35.219C243.102 35.479 243.215 35.7087 243.362 35.908C243.518 36.0987 243.713 36.2503 243.947 36.363C244.181 36.467 244.463 36.519 244.792 36.519ZM244.792 37.156C244.333 37.156 243.912 37.0737 243.531 36.909C243.15 36.7443 242.825 36.5103 242.556 36.207C242.287 35.895 242.079 35.5267 241.932 35.102C241.785 34.6687 241.711 34.1833 241.711 33.646C241.711 33.1173 241.785 32.6363 241.932 32.203C242.079 31.7697 242.287 31.4013 242.556 31.098C242.825 30.786 243.15 30.5477 243.531 30.383C243.912 30.2183 244.333 30.136 244.792 30.136C245.251 30.136 245.672 30.2183 246.053 30.383C246.434 30.5477 246.759 30.786 247.028 31.098C247.297 31.4013 247.505 31.7697 247.652 32.203C247.799 32.6363 247.873 33.1173 247.873 33.646C247.873 34.1833 247.799 34.6687 247.652 35.102C247.505 35.5267 247.297 35.895 247.028 36.207C246.759 36.5103 246.434 36.7443 246.053 36.909C245.672 37.0737 245.251 37.156 244.792 37.156ZM249.101 36.402H250.063V30.877H249.101V30.292H252.845C253.469 30.292 253.95 30.4393 254.288 30.734C254.626 31.0287 254.795 31.4143 254.795 31.891C254.795 32.385 254.661 32.7533 254.392 32.996C254.132 33.2387 253.816 33.399 253.443 33.477V33.529C253.634 33.5463 253.82 33.594 254.002 33.672C254.193 33.75 254.362 33.8583 254.509 33.997C254.657 34.127 254.778 34.2917 254.873 34.491C254.969 34.6817 255.016 34.907 255.016 35.167C255.016 35.7823 254.826 36.2417 254.444 36.545C254.072 36.8483 253.547 37 252.871 37H249.101V36.402ZM252.767 36.363C253.14 36.363 253.417 36.2677 253.599 36.077C253.79 35.8777 253.885 35.6263 253.885 35.323V34.946C253.885 34.6427 253.79 34.3957 253.599 34.205C253.409 34.0057 253.131 33.906 252.767 33.906H251.129V36.363H252.767ZM252.637 33.269C252.967 33.269 253.218 33.178 253.391 32.996C253.573 32.8053 253.664 32.5713 253.664 32.294V31.904C253.664 31.6267 253.573 31.397 253.391 31.215C253.218 31.0243 252.967 30.929 252.637 30.929H251.129V33.269H252.637ZM262.387 37.156C261.902 37.156 261.468 37.0737 261.087 36.909C260.714 36.7357 260.398 36.4973 260.138 36.194C259.878 35.882 259.679 35.5137 259.54 35.089C259.401 34.6557 259.332 34.1747 259.332 33.646C259.332 33.1087 259.406 32.6233 259.553 32.19C259.709 31.7567 259.926 31.3883 260.203 31.085C260.48 30.7817 260.81 30.5477 261.191 30.383C261.581 30.2183 262.01 30.136 262.478 30.136C263.18 30.136 263.735 30.2877 264.142 30.591C264.558 30.8857 264.766 31.2627 264.766 31.722C264.766 31.9993 264.692 32.216 264.545 32.372C264.406 32.528 264.211 32.606 263.96 32.606C263.691 32.606 263.492 32.528 263.362 32.372C263.232 32.216 263.167 32.0297 263.167 31.813C263.167 31.6223 263.215 31.4577 263.31 31.319C263.405 31.1803 263.54 31.072 263.713 30.994V30.955C263.6 30.8857 263.453 30.8337 263.271 30.799C263.098 30.7643 262.872 30.747 262.595 30.747C262.292 30.747 262.01 30.8033 261.75 30.916C261.499 31.0287 261.282 31.189 261.1 31.397C260.918 31.5963 260.775 31.8347 260.671 32.112C260.567 32.3807 260.515 32.6753 260.515 32.996V33.958C260.515 34.3133 260.563 34.6383 260.658 34.933C260.753 35.219 260.888 35.466 261.061 35.674C261.243 35.882 261.455 36.0423 261.698 36.155C261.949 36.2677 262.231 36.324 262.543 36.324C263.072 36.324 263.488 36.2157 263.791 35.999C264.094 35.7737 264.337 35.4833 264.519 35.128L264.935 35.401C264.857 35.6263 264.744 35.8473 264.597 36.064C264.45 36.272 264.272 36.4583 264.064 36.623C263.856 36.779 263.609 36.9047 263.323 37C263.046 37.104 262.734 37.156 262.387 37.156ZM266.1 36.402H267.062V30.877H266.1V30.292H269.09V30.877H268.128V33.308H269.207L269.935 31.67C270.187 31.098 270.442 30.6993 270.702 30.474C270.971 30.2487 271.27 30.136 271.599 30.136C271.885 30.136 272.106 30.2183 272.262 30.383C272.418 30.5477 272.496 30.7557 272.496 31.007C272.496 31.2583 272.427 31.462 272.288 31.618C272.158 31.7653 271.981 31.839 271.755 31.839C271.53 31.839 271.357 31.7697 271.235 31.631C271.114 31.4923 271.053 31.2973 271.053 31.046H271.014C270.945 31.1327 270.867 31.2497 270.78 31.397C270.694 31.5357 270.607 31.7003 270.52 31.891L269.792 33.529C269.966 33.555 270.113 33.6113 270.234 33.698C270.356 33.7847 270.473 33.9147 270.585 34.088L272.08 36.402H272.808V37H271.209L269.207 33.906H268.128V36.402H269.09V37H266.1V36.402ZM274.704 39.756C274.262 39.756 273.942 39.6607 273.742 39.47C273.543 39.288 273.443 39.0453 273.443 38.742C273.443 38.5167 273.504 38.3347 273.625 38.196C273.747 38.0573 273.92 37.988 274.145 37.988C274.345 37.988 274.496 38.0443 274.6 38.157C274.713 38.2783 274.769 38.4387 274.769 38.638C274.769 38.7853 274.73 38.9023 274.652 38.989C274.583 39.0843 274.505 39.145 274.418 39.171V39.21C274.514 39.2447 274.626 39.262 274.756 39.262C274.982 39.262 275.203 39.1623 275.419 38.963C275.636 38.7723 275.831 38.456 276.004 38.014L276.277 37.273L273.807 30.89H273.131V30.292H275.913V30.89H274.977L276.784 35.804H276.836L278.591 30.89H277.655V30.292H280.021V30.89H279.345L276.563 38.118C276.381 38.5947 276.134 38.9847 275.822 39.288C275.519 39.6 275.146 39.756 274.704 39.756ZM284.376 36.402H285.598V33.698H285.559C285.351 33.9493 285.087 34.153 284.766 34.309C284.454 34.465 284.064 34.543 283.596 34.543C282.92 34.543 282.413 34.387 282.075 34.075C281.737 33.763 281.568 33.2517 281.568 32.541V30.877H280.606V30.292H283.531V30.877H282.634V32.437C282.634 32.931 282.738 33.282 282.946 33.49C283.163 33.698 283.535 33.802 284.064 33.802C284.523 33.802 284.892 33.7197 285.169 33.555C285.455 33.3903 285.598 33.1433 285.598 32.814V30.877H284.701V30.292H287.626V30.877H286.664V36.402H287.626V37H284.376V36.402ZM288.926 36.402H289.888V30.877H288.926V30.292H291.916V30.877H290.954V33.282H294.178V30.877H293.216V30.292H296.206V30.877H295.244V36.402H296.206V37H293.216V36.402H294.178V33.919H290.954V36.402H291.916V37H288.926V36.402ZM300.524 36.519C300.845 36.519 301.122 36.467 301.356 36.363C301.599 36.2503 301.794 36.0987 301.941 35.908C302.097 35.7087 302.21 35.479 302.279 35.219C302.357 34.9503 302.396 34.66 302.396 34.348V32.944C302.396 32.632 302.357 32.346 302.279 32.086C302.21 31.8173 302.097 31.5877 301.941 31.397C301.794 31.1977 301.599 31.046 301.356 30.942C301.122 30.8293 300.845 30.773 300.524 30.773C300.195 30.773 299.913 30.8293 299.679 30.942C299.445 31.046 299.25 31.1977 299.094 31.397C298.947 31.5877 298.834 31.8173 298.756 32.086C298.687 32.346 298.652 32.632 298.652 32.944V34.348C298.652 34.66 298.687 34.9503 298.756 35.219C298.834 35.479 298.947 35.7087 299.094 35.908C299.25 36.0987 299.445 36.2503 299.679 36.363C299.913 36.467 300.195 36.519 300.524 36.519ZM300.524 37.156C300.065 37.156 299.645 37.0737 299.263 36.909C298.882 36.7443 298.557 36.5103 298.288 36.207C298.02 35.895 297.812 35.5267 297.664 35.102C297.517 34.6687 297.443 34.1833 297.443 33.646C297.443 33.1173 297.517 32.6363 297.664 32.203C297.812 31.7697 298.02 31.4013 298.288 31.098C298.557 30.786 298.882 30.5477 299.263 30.383C299.645 30.2183 300.065 30.136 300.524 30.136C300.984 30.136 301.404 30.2183 301.785 30.383C302.167 30.5477 302.492 30.786 302.76 31.098C303.029 31.4013 303.237 31.7697 303.384 32.203C303.532 32.6363 303.605 33.1173 303.605 33.646C303.605 34.1833 303.532 34.6687 303.384 35.102C303.237 35.5267 303.029 35.895 302.76 36.207C302.492 36.5103 302.167 36.7443 301.785 36.909C301.404 37.0737 300.984 37.156 300.524 37.156Z" fill="#415283"/>
</g>
<defs>
<clipPath id="clip0_6665_52273">
<rect width="343" height="48" fill="white"/>
</clipPath>
</defs>
</svg>
