<svg width="560" height="112" viewBox="0 0 560 112" fill="none" xmlns="http://www.w3.org/2000/svg">
<g clip-path="url(#clip0_7141_23697)">
<rect width="560" height="112" fill="#F6F8FF"/>
<rect width="220" height="112" fill="#F6F8FF"/>
<path d="M57.1967 -36.3533L62.4069 17.9473L84.1419 -32.0856L72.3173 21.1674L108.45 -19.7002L80.7477 27.2924L127.74 -0.409519L86.8727 35.7227L140.126 23.8981L90.0928 45.6332L144.393 50.8434L90.0928 56.0536L140.126 77.7886L86.8727 65.9641L127.74 102.096L80.7477 74.3944L108.45 121.387L72.3173 80.5194L84.1419 133.772L62.4069 83.7395L57.1967 138.04L51.9864 83.7395L30.2514 133.772L42.076 80.5194L5.94375 121.387L33.6456 74.3944L-13.3469 102.096L27.5207 65.9641L-25.7323 77.7886L24.3006 56.0536L-30 50.8434L24.3006 45.6332L-25.7323 23.8981L27.5207 35.7227L-13.3469 -0.409519L33.6456 27.2924L5.94375 -19.7002L42.076 21.1674L30.2514 -32.0856L51.9864 17.9473L57.1967 -36.3533Z" fill="#B6E0CF"/>
<path d="M42.3969 52.764C39.7912 52.764 37.5272 52.4437 35.6049 51.8029C33.6933 51.1515 32.1021 50.2758 30.8313 49.1758C29.5711 48.0652 28.6314 46.7783 28.012 45.3153C27.3926 43.8415 27.0829 42.2824 27.0829 40.6378C27.0829 38.9931 27.3926 37.4393 28.012 35.9763C28.6314 34.5025 29.5711 33.2157 30.8313 32.1157C32.1021 31.0051 33.6933 30.1294 35.6049 29.4886C37.5272 28.8372 39.7912 28.5115 42.3969 28.5115C45.0026 28.5115 47.2613 28.8372 49.1729 29.4886C51.0952 30.1294 52.6864 31.0051 53.9465 32.1157C55.2174 33.2157 56.1625 34.5025 56.7819 35.9763C57.4013 37.4393 57.711 38.9931 57.711 40.6378C57.711 42.2824 57.4013 43.8415 56.7819 45.3153C56.1625 46.7783 55.2174 48.0652 53.9465 49.1758C52.6864 50.2758 51.0952 51.1515 49.1729 51.8029C47.2613 52.4437 45.0026 52.764 42.3969 52.764ZM42.3969 48.1346C44.159 48.1346 45.6594 47.9263 46.8982 47.5099C48.1477 47.0934 49.1622 46.5434 49.9418 45.8599C50.7321 45.1658 51.3087 44.3702 51.6718 43.4731C52.0349 42.5654 52.2165 41.6202 52.2165 40.6378C52.2165 39.6659 52.0349 38.7262 51.6718 37.8184C51.3087 36.9107 50.7321 36.1151 49.9418 35.4316C49.1622 34.7375 48.1477 34.1821 46.8982 33.7657C45.6594 33.3492 44.159 33.1409 42.3969 33.1409C40.6348 33.1409 39.1291 33.3492 37.8796 33.7657C36.6408 34.1821 35.6263 34.7375 34.836 35.4316C34.0564 36.1151 33.4851 36.9107 33.122 37.8184C32.7589 38.7262 32.5773 39.6659 32.5773 40.6378C32.5773 41.6202 32.7589 42.5654 33.122 43.4731C33.4851 44.3702 34.0564 45.1658 34.836 45.8599C35.6263 46.5434 36.6408 47.0934 37.8796 47.5099C39.1291 47.9263 40.6348 48.1346 42.3969 48.1346ZM59.9536 35.6238H79.4165V39.6606H72.2401V52.1233H66.9699V39.6606H59.9536V35.6238ZM81.9956 52.1233V35.6238H95.7878C97.8276 35.6238 99.3921 35.9923 100.481 36.7291C101.571 37.4553 102.115 38.55 102.115 40.013C102.115 40.547 102.025 41.0222 101.843 41.4387C101.672 41.8445 101.443 42.1969 101.154 42.4959C100.877 42.7843 100.556 43.0192 100.193 43.2008C99.8299 43.3716 99.4615 43.4891 99.0877 43.5532C99.6537 43.6493 100.145 43.8148 100.561 44.0498C100.989 44.2847 101.341 44.5731 101.619 44.9148C101.907 45.2565 102.121 45.641 102.259 46.0682C102.398 46.4846 102.468 46.9225 102.468 47.3817C102.468 48.236 102.286 48.9676 101.923 49.5763C101.56 50.1743 101.058 50.6656 100.417 51.05C99.7872 51.4238 99.045 51.6961 98.1907 51.867C97.347 52.0379 96.4393 52.1233 95.4675 52.1233H81.9956ZM94.9869 48.0865C95.7878 48.0865 96.3592 47.9904 96.7009 47.7982C97.0427 47.5953 97.2135 47.2375 97.2135 46.7249C97.2135 46.2123 97.0427 45.8599 96.7009 45.6677C96.3592 45.4648 95.7878 45.3633 94.9869 45.3633H87.2818V48.0865H94.9869ZM94.9869 41.9994C95.3714 41.9994 95.6864 41.9727 95.932 41.9193C96.1776 41.8659 96.3645 41.7911 96.4927 41.695C96.6315 41.5882 96.7276 41.4654 96.781 41.3266C96.8344 41.1771 96.8611 41.0115 96.8611 40.83C96.8611 40.6484 96.8344 40.4882 96.781 40.3494C96.7276 40.1999 96.6315 40.0771 96.4927 39.981C96.3645 39.8742 96.1776 39.7941 95.932 39.7407C95.6864 39.6873 95.3714 39.6606 94.9869 39.6606H87.2818V41.9994H94.9869ZM124.718 50.5054C124.141 50.9005 123.42 51.2529 122.555 51.5626C121.819 51.8296 120.889 52.0699 119.768 52.2835C118.647 52.4971 117.312 52.6039 115.763 52.6039C114.364 52.6039 113.12 52.4917 112.031 52.2675C110.942 52.0432 109.986 51.7335 109.164 51.3384C108.352 50.9432 107.663 50.4733 107.097 49.9287C106.531 49.3841 106.072 48.7914 105.72 48.1506C105.367 47.4992 105.111 46.8157 104.951 46.1002C104.79 45.374 104.71 44.6318 104.71 43.8736C104.71 42.7095 104.919 41.5989 105.335 40.5416C105.762 39.4844 106.414 38.5553 107.289 37.7544C108.176 36.9534 109.292 36.318 110.637 35.8481C111.983 35.3782 113.585 35.1433 115.443 35.1433C117.248 35.1433 118.818 35.3889 120.153 35.8801C121.498 36.3607 122.603 37.0602 123.468 37.9786C124.344 38.8864 124.98 40.0023 125.375 41.3266C125.77 42.6508 125.93 44.1459 125.855 45.8119H110.173C110.173 46.0468 110.248 46.3298 110.397 46.6609C110.547 46.9919 110.824 47.3123 111.23 47.622C111.647 47.921 112.218 48.1826 112.944 48.4069C113.67 48.6205 114.61 48.7273 115.763 48.7273C116.714 48.7273 117.584 48.6579 118.374 48.519C119.175 48.3802 119.875 48.2254 120.473 48.0545C121.156 47.8623 121.786 47.6327 122.363 47.3657L124.718 50.5054ZM120.697 42.4158C120.697 42.2557 120.66 42.0634 120.585 41.8392C120.521 41.6042 120.409 41.3639 120.249 41.1183C120.088 40.862 119.875 40.6111 119.608 40.3654C119.352 40.1091 119.026 39.8849 118.631 39.6926C118.246 39.4897 117.787 39.3295 117.253 39.2121C116.73 39.0839 116.126 39.0198 115.443 39.0198C114.749 39.0198 114.14 39.0839 113.617 39.2121C113.094 39.3295 112.634 39.4897 112.239 39.6926C111.855 39.8849 111.529 40.1091 111.262 40.3654C111.006 40.6111 110.798 40.862 110.637 41.1183C110.477 41.3639 110.36 41.6042 110.285 41.8392C110.221 42.0634 110.189 42.2557 110.189 42.4158H120.697ZM127.81 35.6238H147.273V39.6606H140.096V52.1233H134.826V39.6606H127.81V35.6238ZM163.852 35.6238H169.587V52.1233H164.333V42.4319L155.586 52.1233H149.852V35.6238H155.106V45.3153L163.852 35.6238ZM193.215 35.6238V52.1233H187.928V39.6606H179.535V44.6425C179.535 45.956 179.412 47.056 179.166 47.9424C178.931 48.8287 178.611 49.5549 178.205 50.1209C177.799 50.6763 177.329 51.1034 176.795 51.4024C176.261 51.6908 175.701 51.8937 175.113 52.0112C174.537 52.118 173.949 52.1713 173.351 52.1713C172.753 52.1713 172.193 52.1553 171.669 52.1233V47.7662C172.214 47.8089 172.652 47.7715 172.983 47.654C173.325 47.5259 173.586 47.3283 173.768 47.0613C173.96 46.7943 174.088 46.4579 174.152 46.0521C174.216 45.6463 174.248 45.1764 174.248 44.6425V35.6238H193.215ZM210.755 35.6238H216.49V52.1233H211.236V42.4319L202.49 52.1233H196.755V35.6238H202.009V45.3153L210.755 35.6238Z" fill="#415283"/>
<path d="M46.3618 64.7981V78.4766H43.8122V66.889H33.5601V78.4766H31.0106V64.7981H46.3618ZM66.0053 64.5283C67.4442 64.5283 68.7122 64.7082 69.8093 65.0679C70.9065 65.4276 71.8238 65.9268 72.5612 66.5653C73.3076 67.1948 73.8697 67.9457 74.2474 68.818C74.6251 69.6814 74.814 70.6211 74.814 71.6373C74.814 72.6536 74.6251 73.5978 74.2474 74.4702C73.8697 75.3335 73.3076 76.0844 72.5612 76.7229C71.8238 77.3524 70.9065 77.847 69.8093 78.2068C68.7122 78.5665 67.4442 78.7464 66.0053 78.7464C64.5664 78.7464 63.2984 78.5665 62.2012 78.2068C61.1041 77.847 60.1823 77.3524 59.4359 76.7229C58.6984 76.0844 58.1409 75.3335 57.7631 74.4702C57.3854 73.5978 57.1966 72.6536 57.1966 71.6373C57.1966 70.6211 57.3854 69.6814 57.7631 68.818C58.1409 67.9457 58.6984 67.1948 59.4359 66.5653C60.1823 65.9268 61.1041 65.4276 62.2012 65.0679C63.2984 64.7082 64.5664 64.5283 66.0053 64.5283ZM66.0053 66.6192C64.8722 66.6192 63.9144 66.7586 63.132 67.0374C62.3496 67.3162 61.7111 67.6894 61.2165 68.157C60.7309 68.6157 60.3756 69.1508 60.1508 69.7623C59.935 70.3648 59.8271 70.9898 59.8271 71.6373C59.8271 72.2938 59.935 72.9278 60.1508 73.5394C60.3756 74.1419 60.7309 74.677 61.2165 75.1446C61.7111 75.6033 62.3496 75.972 63.132 76.2508C63.9144 76.5206 64.8722 76.6555 66.0053 76.6555C67.1384 76.6555 68.0962 76.5206 68.8786 76.2508C69.661 75.972 70.295 75.6033 70.7806 75.1446C71.2752 74.677 71.6304 74.1419 71.8463 73.5394C72.0711 72.9278 72.1835 72.2938 72.1835 71.6373C72.1835 70.9898 72.0711 70.3648 71.8463 69.7623C71.6304 69.1508 71.2752 68.6157 70.7806 68.157C70.295 67.6894 69.661 67.3162 68.8786 67.0374C68.0962 66.7586 67.1384 66.6192 66.0053 66.6192ZM113.926 64.7981H116.475V78.4766H113.926V72.4332H103.539V78.4766H100.989V64.7981H103.539V70.3423H113.926V64.7981ZM128.497 65.8908C129.046 65.639 129.675 65.4141 130.386 65.2163C130.997 65.0454 131.73 64.8881 132.584 64.7442C133.448 64.6003 134.424 64.5283 135.512 64.5283C136.618 64.5283 137.558 64.6093 138.331 64.7711C139.104 64.924 139.752 65.1354 140.274 65.4052C140.795 65.6749 141.204 65.9897 141.501 66.3494C141.807 66.7091 142.036 67.0958 142.189 67.5095C142.342 67.9232 142.436 68.3549 142.472 68.8045C142.517 69.2452 142.54 69.6814 142.54 70.113V78.4766H139.99V75.927C139.765 76.2868 139.487 76.6375 139.154 76.9792C138.83 77.312 138.43 77.6132 137.953 77.883C137.477 78.1438 136.91 78.3507 136.254 78.5035C135.597 78.6654 134.828 78.7464 133.947 78.7464C131.807 78.7464 130.165 78.3776 129.023 77.6402C127.881 76.9028 127.31 75.7697 127.31 74.2408C127.31 73.4764 127.476 72.8109 127.809 72.2444C128.151 71.6778 128.614 71.2012 129.199 70.8145C129.792 70.4278 130.489 70.122 131.289 69.8972C132.09 69.6724 132.953 69.5195 133.879 69.4385C134.815 69.3486 135.791 69.3216 136.807 69.3576C137.823 69.3936 138.844 69.479 139.869 69.6139C139.86 69.1373 139.815 68.7146 139.734 68.3459C139.653 67.9772 139.464 67.6669 139.167 67.4151C138.88 67.1543 138.448 66.9565 137.872 66.8216C137.297 66.6867 136.51 66.6192 135.512 66.6192C134.72 66.6192 133.965 66.6822 133.245 66.8081C132.535 66.925 131.901 67.0554 131.343 67.1993C130.696 67.3611 130.089 67.55 129.522 67.7658L128.497 65.8908ZM129.954 74.2408C129.954 74.5916 130.021 74.9153 130.156 75.2121C130.3 75.5089 130.534 75.7652 130.858 75.981C131.182 76.1878 131.604 76.3542 132.126 76.4801C132.656 76.597 133.308 76.6555 134.082 76.6555C135.161 76.6555 136.074 76.5206 136.82 76.2508C137.567 75.981 138.174 75.6393 138.641 75.2256C139.118 74.8119 139.46 74.3577 139.667 73.8631C139.882 73.3685 139.99 72.8964 139.99 72.4467V71.3676C139.244 71.2866 138.475 71.2327 137.684 71.2057C136.901 71.1697 136.137 71.1742 135.39 71.2192C134.644 71.2551 133.942 71.3406 133.286 71.4755C132.629 71.6014 132.054 71.7857 131.559 72.0285C131.065 72.2624 130.673 72.5636 130.386 72.9323C130.098 73.2921 129.954 73.7282 129.954 74.2408ZM160.322 82.3481C160.052 82.8067 159.787 83.2294 159.526 83.6161C159.274 84.0118 158.991 84.3535 158.676 84.6413C158.361 84.9291 158.002 85.1584 157.597 85.3293C157.201 85.5091 156.725 85.617 156.167 85.653C155.627 85.689 155.169 85.6755 154.791 85.6126C154.413 85.5586 154.103 85.4911 153.86 85.4102C153.572 85.3113 153.339 85.1944 153.159 85.0595L154.454 83.3328C154.562 83.3868 154.692 83.4317 154.845 83.4677C154.971 83.5037 155.128 83.5307 155.317 83.5486C155.506 83.5756 155.722 83.5801 155.965 83.5621C156.216 83.5441 156.437 83.4812 156.626 83.3733C156.814 83.2744 156.99 83.135 157.152 82.9551C157.323 82.7752 157.484 82.5549 157.637 82.2941C157.799 82.0333 157.975 81.732 158.163 81.3903L159.742 78.4766L152.282 64.7981H155.169L161.091 75.7786L167.013 64.7981H169.899L160.322 82.3481ZM182.609 64.7981V71.0168L191.243 64.7981H195.087L187.452 70.2884L195.087 78.4766H191.89L185.536 71.6643L182.609 73.7687V78.4766H180.06V64.7981H182.609ZM219.358 76.6824C218.953 77.0781 218.413 77.4244 217.739 77.7211C217.451 77.847 217.123 77.973 216.754 78.0989C216.385 78.2248 215.967 78.3372 215.5 78.4361C215.032 78.526 214.519 78.598 213.962 78.6519C213.404 78.7149 212.793 78.7464 212.127 78.7464C210.751 78.7464 209.546 78.5665 208.512 78.2068C207.487 77.847 206.632 77.3524 205.949 76.7229C205.265 76.0844 204.753 75.3335 204.411 74.4702C204.069 73.5978 203.899 72.6536 203.899 71.6373C203.899 70.6211 204.069 69.6814 204.411 68.818C204.753 67.9457 205.265 67.1948 205.949 66.5653C206.632 65.9268 207.487 65.4276 208.512 65.0679C209.546 64.7082 210.751 64.5283 212.127 64.5283C214.861 64.5283 216.911 65.2208 218.278 66.6057C219.645 67.9907 220.329 70.086 220.329 72.8919H206.637C206.673 73.3775 206.803 73.8496 207.028 74.3083C207.253 74.7579 207.586 75.1581 208.026 75.5089C208.467 75.8596 209.025 76.1384 209.699 76.3452C210.383 76.552 211.192 76.6555 212.127 76.6555C213.053 76.6555 213.863 76.579 214.555 76.4261C215.257 76.2643 215.85 76.0844 216.336 75.8866C216.893 75.6527 217.379 75.3919 217.793 75.1042L219.358 76.6824ZM217.604 70.6661C217.559 70.1895 217.442 69.7128 217.253 69.2362C217.064 68.7506 216.759 68.3144 216.336 67.9277C215.922 67.541 215.374 67.2262 214.69 66.9834C214.007 66.7406 213.152 66.6192 212.127 66.6192C211.102 66.6192 210.248 66.7406 209.564 66.9834C208.881 67.2262 208.328 67.541 207.905 67.9277C207.491 68.3144 207.185 68.7506 206.988 69.2362C206.799 69.7128 206.686 70.1895 206.65 70.6661H217.604Z" fill="#415283"/>
<line x1="238.689" y1="27.5" x2="238.689" y2="84.5" stroke="#415283" stroke-width="1.3784"/>
<path d="M266.024 47.352C266.976 47.352 267.816 47.184 268.544 46.848C269.291 46.4933 269.916 46.008 270.42 45.392C270.924 44.7573 271.307 44.0107 271.568 43.152C271.829 42.2933 271.96 41.3507 271.96 40.324V37.132C271.96 36.1053 271.829 35.1627 271.568 34.304C271.307 33.4453 270.924 32.708 270.42 32.092C269.916 31.4573 269.291 30.972 268.544 30.636C267.816 30.2813 266.976 30.104 266.024 30.104C265.072 30.104 264.223 30.2813 263.476 30.636C262.748 30.972 262.132 31.4573 261.628 32.092C261.124 32.708 260.741 33.4453 260.48 34.304C260.219 35.1627 260.088 36.1053 260.088 37.132V40.324C260.088 41.3507 260.219 42.2933 260.48 43.152C260.741 44.0107 261.124 44.7573 261.628 45.392C262.132 46.008 262.748 46.4933 263.476 46.848C264.223 47.184 265.072 47.352 266.024 47.352ZM266.024 48.836C264.736 48.836 263.56 48.6027 262.496 48.136C261.432 47.6693 260.517 46.9973 259.752 46.12C259.005 45.2427 258.427 44.188 258.016 42.956C257.605 41.7053 257.4 40.296 257.4 38.728C257.4 37.16 257.605 35.76 258.016 34.528C258.427 33.2773 259.005 32.2133 259.752 31.336C260.517 30.4587 261.432 29.7867 262.496 29.32C263.56 28.8533 264.736 28.62 266.024 28.62C267.312 28.62 268.488 28.8533 269.552 29.32C270.616 29.7867 271.521 30.4587 272.268 31.336C273.033 32.2133 273.621 33.2773 274.032 34.528C274.443 35.76 274.648 37.16 274.648 38.728C274.648 40.296 274.443 41.7053 274.032 42.956C273.621 44.188 273.033 45.2427 272.268 46.12C271.521 46.9973 270.616 47.6693 269.552 48.136C268.488 48.6027 267.312 48.836 266.024 48.836ZM279.708 47.212H282.34V35.424H278.812V38.308H277.132V34.052H289.844V38.308H288.164V35.424H284.636V47.212H287.268V48.5H279.708V47.212ZM292.209 47.212H294.281V35.312H292.209V34.052H300.273C301.617 34.052 302.653 34.3693 303.381 35.004C304.109 35.6387 304.473 36.4693 304.473 37.496C304.473 38.56 304.183 39.3533 303.605 39.876C303.045 40.3987 302.363 40.744 301.561 40.912V41.024C301.971 41.0613 302.373 41.164 302.765 41.332C303.175 41.5 303.539 41.7333 303.857 42.032C304.174 42.312 304.435 42.6667 304.641 43.096C304.846 43.5067 304.949 43.992 304.949 44.552C304.949 45.8773 304.538 46.8667 303.717 47.52C302.914 48.1733 301.785 48.5 300.329 48.5H292.209V47.212ZM300.105 47.128C300.907 47.128 301.505 46.9227 301.897 46.512C302.307 46.0827 302.513 45.5413 302.513 44.888V44.076C302.513 43.4227 302.307 42.8907 301.897 42.48C301.486 42.0507 300.889 41.836 300.105 41.836H296.577V47.128H300.105ZM299.825 40.464C300.534 40.464 301.075 40.268 301.449 39.876C301.841 39.4653 302.037 38.9613 302.037 38.364V37.524C302.037 36.9267 301.841 36.432 301.449 36.04C301.075 35.6293 300.534 35.424 299.825 35.424H296.577V40.464H299.825ZM314.425 48.836C313.399 48.836 312.475 48.6587 311.653 48.304C310.851 47.9307 310.169 47.4173 309.609 46.764C309.049 46.1107 308.62 45.3173 308.321 44.384C308.023 43.4507 307.873 42.4147 307.873 41.276C307.873 40.156 308.032 39.1387 308.349 38.224C308.685 37.2907 309.133 36.488 309.693 35.816C310.272 35.144 310.953 34.6307 311.737 34.276C312.521 33.9027 313.38 33.716 314.313 33.716C315.265 33.716 316.115 33.884 316.861 34.22C317.608 34.556 318.233 35.032 318.737 35.648C319.26 36.2453 319.661 36.964 319.941 37.804C320.221 38.644 320.361 39.5587 320.361 40.548V41.192H310.421V41.92C310.421 43.5067 310.813 44.7573 311.597 45.672C312.4 46.5867 313.464 47.044 314.789 47.044C315.947 47.044 316.861 46.8107 317.533 46.344C318.224 45.8587 318.765 45.2333 319.157 44.468L320.081 45.056C319.895 45.5413 319.633 46.0173 319.297 46.484C318.98 46.932 318.588 47.3333 318.121 47.688C317.655 48.024 317.113 48.2947 316.497 48.5C315.881 48.724 315.191 48.836 314.425 48.836ZM310.421 39.904H317.953V39.624C317.953 38.9707 317.879 38.364 317.729 37.804C317.599 37.244 317.384 36.7587 317.085 36.348C316.787 35.9373 316.404 35.62 315.937 35.396C315.489 35.1533 314.948 35.032 314.313 35.032C313.679 35.032 313.119 35.144 312.633 35.368C312.148 35.592 311.737 35.9093 311.401 36.32C311.084 36.7307 310.841 37.216 310.673 37.776C310.505 38.3173 310.421 38.9147 310.421 39.568V39.904ZM330.533 47.212H333.165V41.388H333.081C332.633 41.9293 332.064 42.368 331.373 42.704C330.701 43.04 329.861 43.208 328.853 43.208C327.397 43.208 326.305 42.872 325.577 42.2C324.849 41.528 324.485 40.4267 324.485 38.896V35.312H322.413V34.052H328.713V35.312H326.781V38.672C326.781 39.736 327.005 40.492 327.453 40.94C327.92 41.388 328.722 41.612 329.861 41.612C330.85 41.612 331.644 41.4347 332.241 41.08C332.857 40.7253 333.165 40.1933 333.165 39.484V35.312H331.233V34.052H337.533V35.312H335.461V47.212H337.533V48.5H330.533V47.212ZM344.618 48.836C343.274 48.836 342.219 48.4907 341.454 47.8C340.707 47.0907 340.334 46.1293 340.334 44.916C340.334 44.2253 340.446 43.6187 340.67 43.096C340.894 42.5547 341.258 42.1067 341.762 41.752C342.284 41.3973 342.956 41.1267 343.778 40.94C344.599 40.7533 345.598 40.66 346.774 40.66H348.846V38.532C348.846 37.3933 348.566 36.5253 348.006 35.928C347.464 35.312 346.643 35.004 345.542 35.004C345.056 35.004 344.608 35.0507 344.198 35.144C343.787 35.2187 343.451 35.3307 343.19 35.48V35.536C343.395 35.648 343.591 35.816 343.778 36.04C343.983 36.264 344.086 36.5813 344.086 36.992C344.086 37.4773 343.946 37.86 343.666 38.14C343.386 38.4013 343.012 38.532 342.546 38.532C342.098 38.532 341.724 38.4013 341.426 38.14C341.146 37.86 341.006 37.4493 341.006 36.908C341.006 36.4973 341.127 36.1053 341.37 35.732C341.612 35.34 341.958 34.9947 342.406 34.696C342.854 34.3973 343.404 34.164 344.058 33.996C344.73 33.8093 345.486 33.716 346.326 33.716C347.838 33.716 349.014 34.108 349.854 34.892C350.712 35.676 351.142 36.7773 351.142 38.196V47.296H353.242V48.276C353.036 48.4253 352.756 48.556 352.402 48.668C352.066 48.78 351.683 48.836 351.254 48.836C350.526 48.836 349.966 48.6307 349.574 48.22C349.182 47.8093 348.986 47.2587 348.986 46.568V46.372H348.846C348.715 46.6893 348.538 46.9973 348.314 47.296C348.108 47.5947 347.838 47.856 347.502 48.08C347.166 48.304 346.755 48.4813 346.27 48.612C345.803 48.7613 345.252 48.836 344.618 48.836ZM345.598 47.296C346.494 47.296 347.259 47.072 347.894 46.624C348.528 46.1573 348.846 45.448 348.846 44.496V41.78H347.026C346.223 41.78 345.551 41.8453 345.01 41.976C344.468 42.088 344.039 42.2653 343.722 42.508C343.404 42.732 343.171 43.012 343.022 43.348C342.891 43.684 342.826 44.076 342.826 44.524V45.112C342.826 45.8213 343.068 46.3627 343.554 46.736C344.039 47.1093 344.72 47.296 345.598 47.296ZM362.031 48.836C361.004 48.836 360.08 48.6587 359.259 48.304C358.456 47.9307 357.775 47.4173 357.215 46.764C356.655 46.1107 356.225 45.3173 355.927 44.384C355.628 43.4507 355.479 42.4147 355.479 41.276C355.479 40.156 355.637 39.1387 355.955 38.224C356.291 37.2907 356.739 36.488 357.299 35.816C357.877 35.144 358.559 34.6307 359.343 34.276C360.127 33.9027 360.985 33.716 361.919 33.716C362.871 33.716 363.72 33.884 364.467 34.22C365.213 34.556 365.839 35.032 366.343 35.648C366.865 36.2453 367.267 36.964 367.547 37.804C367.827 38.644 367.967 39.5587 367.967 40.548V41.192H358.027V41.92C358.027 43.5067 358.419 44.7573 359.203 45.672C360.005 46.5867 361.069 47.044 362.395 47.044C363.552 47.044 364.467 46.8107 365.139 46.344C365.829 45.8587 366.371 45.2333 366.763 44.468L367.687 45.056C367.5 45.5413 367.239 46.0173 366.903 46.484C366.585 46.932 366.193 47.3333 365.727 47.688C365.26 48.024 364.719 48.2947 364.103 48.5C363.487 48.724 362.796 48.836 362.031 48.836ZM358.027 39.904H365.559V39.624C365.559 38.9707 365.484 38.364 365.335 37.804C365.204 37.244 364.989 36.7587 364.691 36.348C364.392 35.9373 364.009 35.62 363.543 35.396C363.095 35.1533 362.553 35.032 361.919 35.032C361.284 35.032 360.724 35.144 360.239 35.368C359.753 35.592 359.343 35.9093 359.007 36.32C358.689 36.7307 358.447 37.216 358.279 37.776C358.111 38.3173 358.027 38.9147 358.027 39.568V39.904ZM370.63 47.212H372.73V35.312H370.63V34.052H375.726L379.87 42.34H379.982L384.098 34.052H388.914V35.312H386.842V47.212H388.914V48.5H382.446V47.212H384.546V36.18H384.462L383.426 38.308L379.478 46.26L375.474 38.308L374.466 36.18H374.382V47.212H376.454V48.5H370.63V47.212ZM398.22 47.212H400.292V35.312H398.22V34.052H404.66V35.312H402.588V40.492H409.532V35.312H407.46V34.052H413.9V35.312H411.828V47.212H413.9V48.5H407.46V47.212H409.532V41.864H402.588V47.212H404.66V48.5H398.22V47.212ZM420.989 48.836C419.645 48.836 418.59 48.4907 417.825 47.8C417.078 47.0907 416.705 46.1293 416.705 44.916C416.705 44.2253 416.817 43.6187 417.041 43.096C417.265 42.5547 417.629 42.1067 418.133 41.752C418.655 41.3973 419.327 41.1267 420.149 40.94C420.97 40.7533 421.969 40.66 423.145 40.66H425.217V38.532C425.217 37.3933 424.937 36.5253 424.377 35.928C423.835 35.312 423.014 35.004 421.913 35.004C421.427 35.004 420.979 35.0507 420.569 35.144C420.158 35.2187 419.822 35.3307 419.561 35.48V35.536C419.766 35.648 419.962 35.816 420.149 36.04C420.354 36.264 420.457 36.5813 420.457 36.992C420.457 37.4773 420.317 37.86 420.037 38.14C419.757 38.4013 419.383 38.532 418.917 38.532C418.469 38.532 418.095 38.4013 417.797 38.14C417.517 37.86 417.377 37.4493 417.377 36.908C417.377 36.4973 417.498 36.1053 417.741 35.732C417.983 35.34 418.329 34.9947 418.777 34.696C419.225 34.3973 419.775 34.164 420.429 33.996C421.101 33.8093 421.857 33.716 422.697 33.716C424.209 33.716 425.385 34.108 426.225 34.892C427.083 35.676 427.513 36.7773 427.513 38.196V47.296H429.613V48.276C429.407 48.4253 429.127 48.556 428.773 48.668C428.437 48.78 428.054 48.836 427.625 48.836C426.897 48.836 426.337 48.6307 425.945 48.22C425.553 47.8093 425.357 47.2587 425.357 46.568V46.372H425.217C425.086 46.6893 424.909 46.9973 424.685 47.296C424.479 47.5947 424.209 47.856 423.873 48.08C423.537 48.304 423.126 48.4813 422.641 48.612C422.174 48.7613 421.623 48.836 420.989 48.836ZM421.969 47.296C422.865 47.296 423.63 47.072 424.265 46.624C424.899 46.1573 425.217 45.448 425.217 44.496V41.78H423.397C422.594 41.78 421.922 41.8453 421.381 41.976C420.839 42.088 420.41 42.2653 420.093 42.508C419.775 42.732 419.542 43.012 419.393 43.348C419.262 43.684 419.197 44.076 419.197 44.524V45.112C419.197 45.8213 419.439 46.3627 419.925 46.736C420.41 47.1093 421.091 47.296 421.969 47.296ZM433.76 54.436C432.808 54.436 432.118 54.2307 431.688 53.82C431.259 53.428 431.044 52.9053 431.044 52.252C431.044 51.7667 431.175 51.3747 431.436 51.076C431.698 50.7773 432.071 50.628 432.556 50.628C432.986 50.628 433.312 50.7493 433.536 50.992C433.779 51.2533 433.9 51.5987 433.9 52.028C433.9 52.3453 433.816 52.5973 433.648 52.784C433.499 52.9893 433.331 53.12 433.144 53.176V53.26C433.35 53.3347 433.592 53.372 433.872 53.372C434.358 53.372 434.834 53.1573 435.3 52.728C435.767 52.3173 436.187 51.636 436.56 50.684L437.148 49.088L431.828 35.34H430.372V34.052H436.364V35.34H434.348L438.24 45.924H438.352L442.132 35.34H440.116V34.052H445.212V35.34H443.756L437.764 50.908C437.372 51.9347 436.84 52.7747 436.168 53.428C435.515 54.1 434.712 54.436 433.76 54.436ZM454.592 47.212H457.224V41.388H457.14C456.692 41.9293 456.122 42.368 455.432 42.704C454.76 43.04 453.92 43.208 452.912 43.208C451.456 43.208 450.364 42.872 449.636 42.2C448.908 41.528 448.544 40.4267 448.544 38.896V35.312H446.472V34.052H452.772V35.312H450.84V38.672C450.84 39.736 451.064 40.492 451.512 40.94C451.978 41.388 452.781 41.612 453.92 41.612C454.909 41.612 455.702 41.4347 456.3 41.08C456.916 40.7253 457.224 40.1933 457.224 39.484V35.312H455.292V34.052H461.592V35.312H459.52V47.212H461.592V48.5H454.592V47.212ZM464.392 47.212H466.464V35.312H464.392V34.052H470.832V35.312H468.76V40.492H475.704V35.312H473.632V34.052H480.072V35.312H478V47.212H480.072V48.5H473.632V47.212H475.704V41.864H468.76V47.212H470.832V48.5H464.392V47.212ZM489.373 47.464C490.063 47.464 490.661 47.352 491.165 47.128C491.687 46.8853 492.107 46.5587 492.425 46.148C492.761 45.7187 493.003 45.224 493.153 44.664C493.321 44.0853 493.405 43.46 493.405 42.788V39.764C493.405 39.092 493.321 38.476 493.153 37.916C493.003 37.3373 492.761 36.8427 492.425 36.432C492.107 36.0027 491.687 35.676 491.165 35.452C490.661 35.2093 490.063 35.088 489.373 35.088C488.663 35.088 488.057 35.2093 487.553 35.452C487.049 35.676 486.629 36.0027 486.293 36.432C485.975 36.8427 485.733 37.3373 485.565 37.916C485.415 38.476 485.341 39.092 485.341 39.764V42.788C485.341 43.46 485.415 44.0853 485.565 44.664C485.733 45.224 485.975 45.7187 486.293 46.148C486.629 46.5587 487.049 46.8853 487.553 47.128C488.057 47.352 488.663 47.464 489.373 47.464ZM489.373 48.836C488.383 48.836 487.478 48.6587 486.657 48.304C485.835 47.9493 485.135 47.4453 484.557 46.792C483.978 46.12 483.53 45.3267 483.213 44.412C482.895 43.4787 482.737 42.4333 482.737 41.276C482.737 40.1373 482.895 39.1013 483.213 38.168C483.53 37.2347 483.978 36.4413 484.557 35.788C485.135 35.116 485.835 34.6027 486.657 34.248C487.478 33.8933 488.383 33.716 489.373 33.716C490.362 33.716 491.267 33.8933 492.089 34.248C492.91 34.6027 493.61 35.116 494.189 35.788C494.767 36.4413 495.215 37.2347 495.533 38.168C495.85 39.1013 496.009 40.1373 496.009 41.276C496.009 42.4333 495.85 43.4787 495.533 44.412C495.215 45.3267 494.767 46.12 494.189 46.792C493.61 47.4453 492.91 47.9493 492.089 48.304C491.267 48.6587 490.362 48.836 489.373 48.836ZM497.666 52.308C498.301 51.748 498.833 51.16 499.262 50.544C499.692 49.9467 499.972 49.3773 500.102 48.836H500.046C499.524 48.836 499.122 48.668 498.842 48.332C498.562 47.996 498.422 47.6133 498.422 47.184V47.016C498.422 46.5307 498.581 46.1293 498.898 45.812C499.216 45.476 499.636 45.308 500.158 45.308C500.7 45.308 501.12 45.4853 501.418 45.84C501.736 46.1947 501.894 46.624 501.894 47.128V47.38C501.894 47.7907 501.82 48.22 501.67 48.668C501.521 49.116 501.316 49.564 501.054 50.012C500.812 50.46 500.513 50.88 500.158 51.272C499.822 51.664 499.458 52.0093 499.066 52.308H497.666ZM263.672 84.836C261.955 84.836 260.536 84.2573 259.416 83.1C258.744 82.3907 258.212 81.4667 257.82 80.328C257.447 79.1893 257.26 77.808 257.26 76.184C257.26 74.8213 257.307 73.6267 257.4 72.6C257.493 71.5547 257.633 70.6493 257.82 69.884C258.025 69.1 258.277 68.428 258.576 67.868C258.875 67.308 259.229 66.8133 259.64 66.384C259.901 66.104 260.191 65.88 260.508 65.712C260.825 65.5253 261.189 65.376 261.6 65.264C262.029 65.1333 262.524 65.0307 263.084 64.956C263.663 64.8813 264.335 64.7973 265.1 64.704C265.809 64.6107 266.397 64.536 266.864 64.48C267.331 64.424 267.723 64.368 268.04 64.312L268.18 63.22H269.3C269.412 63.556 269.468 63.9573 269.468 64.424C269.468 64.8533 269.412 65.2173 269.3 65.516C269.207 65.796 269.057 66.048 268.852 66.272C268.721 66.4027 268.563 66.524 268.376 66.636C268.189 66.7293 267.937 66.8227 267.62 66.916C267.321 66.9907 266.939 67.056 266.472 67.112C266.024 67.168 265.464 67.224 264.792 67.28C264.12 67.3173 263.541 67.364 263.056 67.42C262.589 67.4573 262.179 67.5133 261.824 67.588C261.488 67.6627 261.199 67.7653 260.956 67.896C260.713 68.008 260.489 68.1573 260.284 68.344C260.06 68.5867 259.864 68.8573 259.696 69.156C259.528 69.4547 259.379 69.8093 259.248 70.22C259.136 70.6307 259.033 71.116 258.94 71.676C258.865 72.236 258.8 72.8987 258.744 73.664H258.856C259.323 72.5813 259.957 71.76 260.76 71.2C261.563 70.6213 262.617 70.332 263.924 70.332C265.791 70.332 267.275 70.9387 268.376 72.152C269.477 73.3653 270.028 75.1293 270.028 77.444C270.028 78.564 269.879 79.5813 269.58 80.496C269.281 81.4107 268.852 82.1947 268.292 82.848C267.751 83.4827 267.088 83.9773 266.304 84.332C265.52 84.668 264.643 84.836 263.672 84.836ZM263.644 83.464C264.297 83.464 264.857 83.352 265.324 83.128C265.809 82.904 266.201 82.5867 266.5 82.176C266.817 81.7653 267.051 81.28 267.2 80.72C267.349 80.16 267.424 79.5533 267.424 78.9V76.268C267.424 75.6147 267.349 75.008 267.2 74.448C267.051 73.888 266.817 73.412 266.5 73.02C266.201 72.6093 265.809 72.292 265.324 72.068C264.857 71.8253 264.297 71.704 263.644 71.704C262.991 71.704 262.421 71.8253 261.936 72.068C261.469 72.292 261.077 72.6093 260.76 73.02C260.461 73.412 260.237 73.888 260.088 74.448C259.939 75.008 259.864 75.6147 259.864 76.268V78.9C259.864 79.5533 259.939 80.16 260.088 80.72C260.237 81.28 260.461 81.7653 260.76 82.176C261.077 82.5867 261.469 82.904 261.936 83.128C262.421 83.352 262.991 83.464 263.644 83.464ZM279.371 84.836C278.344 84.836 277.42 84.6587 276.599 84.304C275.796 83.9307 275.115 83.4173 274.555 82.764C273.995 82.1107 273.565 81.3173 273.267 80.384C272.968 79.4507 272.819 78.4147 272.819 77.276C272.819 76.156 272.977 75.1387 273.295 74.224C273.631 73.2907 274.079 72.488 274.639 71.816C275.217 71.144 275.899 70.6307 276.683 70.276C277.467 69.9027 278.325 69.716 279.259 69.716C280.211 69.716 281.06 69.884 281.807 70.22C282.553 70.556 283.179 71.032 283.683 71.648C284.205 72.2453 284.607 72.964 284.887 73.804C285.167 74.644 285.307 75.5587 285.307 76.548V77.192H275.367V77.92C275.367 79.5067 275.759 80.7573 276.543 81.672C277.345 82.5867 278.409 83.044 279.735 83.044C280.892 83.044 281.807 82.8107 282.479 82.344C283.169 81.8587 283.711 81.2333 284.103 80.468L285.027 81.056C284.84 81.5413 284.579 82.0173 284.243 82.484C283.925 82.932 283.533 83.3333 283.067 83.688C282.6 84.024 282.059 84.2947 281.443 84.5C280.827 84.724 280.136 84.836 279.371 84.836ZM275.367 75.904H282.899V75.624C282.899 74.9707 282.824 74.364 282.675 73.804C282.544 73.244 282.329 72.7587 282.031 72.348C281.732 71.9373 281.349 71.62 280.883 71.396C280.435 71.1533 279.893 71.032 279.259 71.032C278.624 71.032 278.064 71.144 277.579 71.368C277.093 71.592 276.683 71.9093 276.347 72.32C276.029 72.7307 275.787 73.216 275.619 73.776C275.451 74.3173 275.367 74.9147 275.367 75.568V75.904ZM293.262 84.836C292.422 84.836 291.666 84.7427 290.994 84.556C290.341 84.3693 289.781 84.1267 289.314 83.828C288.848 83.5107 288.484 83.1467 288.222 82.736C287.98 82.3067 287.858 81.868 287.858 81.42C287.858 80.8787 288.008 80.4493 288.306 80.132C288.605 79.8147 288.997 79.656 289.482 79.656C290.005 79.656 290.397 79.8147 290.658 80.132C290.92 80.4493 291.05 80.832 291.05 81.28C291.05 81.6347 290.957 81.952 290.77 82.232C290.602 82.4933 290.35 82.6987 290.014 82.848V82.904C290.332 83.1093 290.714 83.268 291.162 83.38C291.629 83.492 292.254 83.548 293.038 83.548C294.214 83.548 295.092 83.296 295.67 82.792C296.268 82.288 296.566 81.6813 296.566 80.972V80.272C296.566 79.6 296.333 79.0213 295.866 78.536C295.4 78.0507 294.672 77.808 293.682 77.808H291.638V76.436H293.542C294.364 76.436 295.008 76.2213 295.474 75.792C295.96 75.344 296.202 74.7653 296.202 74.056V73.496C296.202 72.7867 295.969 72.1893 295.502 71.704C295.054 71.2187 294.382 70.976 293.486 70.976C292.441 70.976 291.592 71.2187 290.938 71.704C290.304 72.1893 289.986 72.8333 289.986 73.636V74.448H288.306V70.052H289.986V71.424H290.07C290.425 70.9387 290.892 70.5373 291.47 70.22C292.068 69.884 292.842 69.716 293.794 69.716C295.344 69.716 296.538 70.0613 297.378 70.752C298.218 71.424 298.638 72.348 298.638 73.524C298.638 74.42 298.368 75.1573 297.826 75.736C297.285 76.296 296.594 76.6787 295.754 76.884V76.996C296.744 77.2013 297.528 77.5933 298.106 78.172C298.685 78.7507 298.974 79.5347 298.974 80.524C298.974 81.1773 298.825 81.7747 298.526 82.316C298.246 82.8387 297.845 83.2867 297.322 83.66C296.818 84.0333 296.212 84.3227 295.502 84.528C294.812 84.7333 294.065 84.836 293.262 84.836ZM308.533 83.212H310.605V71.312H308.533V70.052H316.597C317.941 70.052 318.977 70.3693 319.705 71.004C320.433 71.6387 320.797 72.4693 320.797 73.496C320.797 74.56 320.507 75.3533 319.929 75.876C319.369 76.3987 318.687 76.744 317.885 76.912V77.024C318.295 77.0613 318.697 77.164 319.089 77.332C319.499 77.5 319.863 77.7333 320.181 78.032C320.498 78.312 320.759 78.6667 320.965 79.096C321.17 79.5067 321.273 79.992 321.273 80.552C321.273 81.8773 320.862 82.8667 320.041 83.52C319.238 84.1733 318.109 84.5 316.653 84.5H308.533V83.212ZM316.429 83.128C317.231 83.128 317.829 82.9227 318.221 82.512C318.631 82.0827 318.837 81.5413 318.837 80.888V80.076C318.837 79.4227 318.631 78.8907 318.221 78.48C317.81 78.0507 317.213 77.836 316.429 77.836H312.901V83.128H316.429ZM316.149 76.464C316.858 76.464 317.399 76.268 317.773 75.876C318.165 75.4653 318.361 74.9613 318.361 74.364V73.524C318.361 72.9267 318.165 72.432 317.773 72.04C317.399 71.6293 316.858 71.424 316.149 71.424H312.901V76.464H316.149ZM330.834 83.464C331.524 83.464 332.122 83.352 332.626 83.128C333.148 82.8853 333.568 82.5587 333.886 82.148C334.222 81.7187 334.464 81.224 334.614 80.664C334.782 80.0853 334.866 79.46 334.866 78.788V75.764C334.866 75.092 334.782 74.476 334.614 73.916C334.464 73.3373 334.222 72.8427 333.886 72.432C333.568 72.0027 333.148 71.676 332.626 71.452C332.122 71.2093 331.524 71.088 330.834 71.088C330.124 71.088 329.518 71.2093 329.014 71.452C328.51 71.676 328.09 72.0027 327.754 72.432C327.436 72.8427 327.194 73.3373 327.026 73.916C326.876 74.476 326.802 75.092 326.802 75.764V78.788C326.802 79.46 326.876 80.0853 327.026 80.664C327.194 81.224 327.436 81.7187 327.754 82.148C328.09 82.5587 328.51 82.8853 329.014 83.128C329.518 83.352 330.124 83.464 330.834 83.464ZM330.834 84.836C329.844 84.836 328.939 84.6587 328.118 84.304C327.296 83.9493 326.596 83.4453 326.018 82.792C325.439 82.12 324.991 81.3267 324.674 80.412C324.356 79.4787 324.198 78.4333 324.198 77.276C324.198 76.1373 324.356 75.1013 324.674 74.168C324.991 73.2347 325.439 72.4413 326.018 71.788C326.596 71.116 327.296 70.6027 328.118 70.248C328.939 69.8933 329.844 69.716 330.834 69.716C331.823 69.716 332.728 69.8933 333.55 70.248C334.371 70.6027 335.071 71.116 335.65 71.788C336.228 72.4413 336.676 73.2347 336.994 74.168C337.311 75.1013 337.47 76.1373 337.47 77.276C337.47 78.4333 337.311 79.4787 336.994 80.412C336.676 81.3267 336.228 82.12 335.65 82.792C335.071 83.4453 334.371 83.9493 333.55 84.304C332.728 84.6587 331.823 84.836 330.834 84.836ZM340.115 83.212H342.187V71.312H340.115V70.052H355.823V71.312H353.751V83.212H355.823V84.5H349.383V83.212H351.455V71.424H344.483V83.212H346.555V84.5H340.115V83.212ZM358.347 88.812H360.419V71.872L358.347 71.508V70.556L362.715 69.716V72.236H362.827C363.144 71.5453 363.648 70.9573 364.339 70.472C365.029 69.968 365.944 69.716 367.083 69.716C368.875 69.716 370.303 70.3693 371.367 71.676C372.449 72.964 372.991 74.8307 372.991 77.276C372.991 79.7213 372.449 81.5973 371.367 82.904C370.303 84.192 368.875 84.836 367.083 84.836C365.963 84.836 365.048 84.5933 364.339 84.108C363.648 83.6227 363.144 83.0347 362.827 82.344H362.715V88.812H365.347V90.1H358.347V88.812ZM366.411 83.24C367.699 83.24 368.697 82.8107 369.407 81.952C370.135 81.0747 370.499 79.908 370.499 78.452V76.1C370.499 74.644 370.135 73.4867 369.407 72.628C368.697 71.7507 367.699 71.312 366.411 71.312C365.963 71.312 365.515 71.3773 365.067 71.508C364.619 71.6387 364.217 71.8253 363.863 72.068C363.527 72.3107 363.247 72.6187 363.023 72.992C362.817 73.3467 362.715 73.748 362.715 74.196V80.356C362.715 80.804 362.817 81.2147 363.023 81.588C363.247 81.9427 363.527 82.2413 363.863 82.484C364.217 82.7267 364.619 82.9133 365.067 83.044C365.515 83.1747 365.963 83.24 366.411 83.24ZM382.568 83.464C383.259 83.464 383.856 83.352 384.36 83.128C384.883 82.8853 385.303 82.5587 385.62 82.148C385.956 81.7187 386.199 81.224 386.348 80.664C386.516 80.0853 386.6 79.46 386.6 78.788V75.764C386.6 75.092 386.516 74.476 386.348 73.916C386.199 73.3373 385.956 72.8427 385.62 72.432C385.303 72.0027 384.883 71.676 384.36 71.452C383.856 71.2093 383.259 71.088 382.568 71.088C381.859 71.088 381.252 71.2093 380.748 71.452C380.244 71.676 379.824 72.0027 379.488 72.432C379.171 72.8427 378.928 73.3373 378.76 73.916C378.611 74.476 378.536 75.092 378.536 75.764V78.788C378.536 79.46 378.611 80.0853 378.76 80.664C378.928 81.224 379.171 81.7187 379.488 82.148C379.824 82.5587 380.244 82.8853 380.748 83.128C381.252 83.352 381.859 83.464 382.568 83.464ZM382.568 84.836C381.579 84.836 380.673 84.6587 379.852 84.304C379.031 83.9493 378.331 83.4453 377.752 82.792C377.173 82.12 376.725 81.3267 376.408 80.412C376.091 79.4787 375.932 78.4333 375.932 77.276C375.932 76.1373 376.091 75.1013 376.408 74.168C376.725 73.2347 377.173 72.4413 377.752 71.788C378.331 71.116 379.031 70.6027 379.852 70.248C380.673 69.8933 381.579 69.716 382.568 69.716C383.557 69.716 384.463 69.8933 385.284 70.248C386.105 70.6027 386.805 71.116 387.384 71.788C387.963 72.4413 388.411 73.2347 388.728 74.168C389.045 75.1013 389.204 76.1373 389.204 77.276C389.204 78.4333 389.045 79.4787 388.728 80.412C388.411 81.3267 387.963 82.12 387.384 82.792C386.805 83.4453 386.105 83.9493 385.284 84.304C384.463 84.6587 383.557 84.836 382.568 84.836ZM398.563 84.836C397.517 84.836 396.584 84.6587 395.763 84.304C394.96 83.9307 394.279 83.4173 393.719 82.764C393.159 82.092 392.729 81.2987 392.431 80.384C392.132 79.4507 391.983 78.4147 391.983 77.276C391.983 76.1187 392.141 75.0733 392.459 74.14C392.795 73.2067 393.261 72.4133 393.859 71.76C394.456 71.1067 395.165 70.6027 395.987 70.248C396.827 69.8933 397.751 69.716 398.759 69.716C400.271 69.716 401.465 70.0427 402.343 70.696C403.239 71.3307 403.687 72.1427 403.687 73.132C403.687 73.7293 403.528 74.196 403.211 74.532C402.912 74.868 402.492 75.036 401.951 75.036C401.372 75.036 400.943 74.868 400.663 74.532C400.383 74.196 400.243 73.7947 400.243 73.328C400.243 72.9173 400.345 72.5627 400.551 72.264C400.756 71.9653 401.045 71.732 401.419 71.564V71.48C401.176 71.3307 400.859 71.2187 400.467 71.144C400.093 71.0693 399.608 71.032 399.011 71.032C398.357 71.032 397.751 71.1533 397.191 71.396C396.649 71.6387 396.183 71.984 395.791 72.432C395.399 72.8613 395.091 73.3747 394.867 73.972C394.643 74.5507 394.531 75.1853 394.531 75.876V77.948C394.531 78.7133 394.633 79.4133 394.839 80.048C395.044 80.664 395.333 81.196 395.707 81.644C396.099 82.092 396.556 82.4373 397.079 82.68C397.62 82.9227 398.227 83.044 398.899 83.044C400.037 83.044 400.933 82.8107 401.587 82.344C402.24 81.8587 402.763 81.2333 403.155 80.468L404.051 81.056C403.883 81.5413 403.64 82.0173 403.323 82.484C403.005 82.932 402.623 83.3333 402.175 83.688C401.727 84.024 401.195 84.2947 400.579 84.5C399.981 84.724 399.309 84.836 398.563 84.836ZM412.783 83.464C413.473 83.464 414.071 83.352 414.575 83.128C415.097 82.8853 415.517 82.5587 415.835 82.148C416.171 81.7187 416.413 81.224 416.563 80.664C416.731 80.0853 416.815 79.46 416.815 78.788V75.764C416.815 75.092 416.731 74.476 416.563 73.916C416.413 73.3373 416.171 72.8427 415.835 72.432C415.517 72.0027 415.097 71.676 414.575 71.452C414.071 71.2093 413.473 71.088 412.783 71.088C412.073 71.088 411.467 71.2093 410.963 71.452C410.459 71.676 410.039 72.0027 409.703 72.432C409.385 72.8427 409.143 73.3373 408.975 73.916C408.825 74.476 408.751 75.092 408.751 75.764V78.788C408.751 79.46 408.825 80.0853 408.975 80.664C409.143 81.224 409.385 81.7187 409.703 82.148C410.039 82.5587 410.459 82.8853 410.963 83.128C411.467 83.352 412.073 83.464 412.783 83.464ZM412.783 84.836C411.793 84.836 410.888 84.6587 410.067 84.304C409.245 83.9493 408.545 83.4453 407.967 82.792C407.388 82.12 406.94 81.3267 406.623 80.412C406.305 79.4787 406.147 78.4333 406.147 77.276C406.147 76.1373 406.305 75.1013 406.623 74.168C406.94 73.2347 407.388 72.4413 407.967 71.788C408.545 71.116 409.245 70.6027 410.067 70.248C410.888 69.8933 411.793 69.716 412.783 69.716C413.772 69.716 414.677 69.8933 415.499 70.248C416.32 70.6027 417.02 71.116 417.599 71.788C418.177 72.4413 418.625 73.2347 418.943 74.168C419.26 75.1013 419.419 76.1373 419.419 77.276C419.419 78.4333 419.26 79.4787 418.943 80.412C418.625 81.3267 418.177 82.12 417.599 82.792C417.02 83.4453 416.32 83.9493 415.499 84.304C414.677 84.6587 413.772 84.836 412.783 84.836ZM422.064 83.212H424.136V71.312H422.064V70.052H430.128C431.472 70.052 432.508 70.3693 433.236 71.004C433.964 71.6387 434.328 72.4693 434.328 73.496C434.328 74.56 434.039 75.3533 433.46 75.876C432.9 76.3987 432.219 76.744 431.416 76.912V77.024C431.827 77.0613 432.228 77.164 432.62 77.332C433.031 77.5 433.395 77.7333 433.712 78.032C434.029 78.312 434.291 78.6667 434.496 79.096C434.701 79.5067 434.804 79.992 434.804 80.552C434.804 81.8773 434.393 82.8667 433.572 83.52C432.769 84.1733 431.64 84.5 430.184 84.5H422.064V83.212ZM429.96 83.128C430.763 83.128 431.36 82.9227 431.752 82.512C432.163 82.0827 432.368 81.5413 432.368 80.888V80.076C432.368 79.4227 432.163 78.8907 431.752 78.48C431.341 78.0507 430.744 77.836 429.96 77.836H426.432V83.128H429.96ZM429.68 76.464C430.389 76.464 430.931 76.268 431.304 75.876C431.696 75.4653 431.892 74.9613 431.892 74.364V73.524C431.892 72.9267 431.696 72.432 431.304 72.04C430.931 71.6293 430.389 71.424 429.68 71.424H426.432V76.464H429.68ZM450.68 84.836C449.635 84.836 448.701 84.6587 447.88 84.304C447.077 83.9307 446.396 83.4173 445.836 82.764C445.276 82.092 444.847 81.2987 444.548 80.384C444.249 79.4507 444.1 78.4147 444.1 77.276C444.1 76.1187 444.259 75.0733 444.576 74.14C444.912 73.2067 445.379 72.4133 445.976 71.76C446.573 71.1067 447.283 70.6027 448.104 70.248C448.944 69.8933 449.868 69.716 450.876 69.716C452.388 69.716 453.583 70.0427 454.46 70.696C455.356 71.3307 455.804 72.1427 455.804 73.132C455.804 73.7293 455.645 74.196 455.328 74.532C455.029 74.868 454.609 75.036 454.068 75.036C453.489 75.036 453.06 74.868 452.78 74.532C452.5 74.196 452.36 73.7947 452.36 73.328C452.36 72.9173 452.463 72.5627 452.668 72.264C452.873 71.9653 453.163 71.732 453.536 71.564V71.48C453.293 71.3307 452.976 71.2187 452.584 71.144C452.211 71.0693 451.725 71.032 451.128 71.032C450.475 71.032 449.868 71.1533 449.308 71.396C448.767 71.6387 448.3 71.984 447.908 72.432C447.516 72.8613 447.208 73.3747 446.984 73.972C446.76 74.5507 446.648 75.1853 446.648 75.876V77.948C446.648 78.7133 446.751 79.4133 446.956 80.048C447.161 80.664 447.451 81.196 447.824 81.644C448.216 82.092 448.673 82.4373 449.196 82.68C449.737 82.9227 450.344 83.044 451.016 83.044C452.155 83.044 453.051 82.8107 453.704 82.344C454.357 81.8587 454.88 81.2333 455.272 80.468L456.168 81.056C456 81.5413 455.757 82.0173 455.44 82.484C455.123 82.932 454.74 83.3333 454.292 83.688C453.844 84.024 453.312 84.2947 452.696 84.5C452.099 84.724 451.427 84.836 450.68 84.836ZM458.677 83.212H460.749V71.312H458.677V70.052H465.117V71.312H463.045V76.548H465.369L466.937 73.02C467.479 71.788 468.029 70.9293 468.589 70.444C469.168 69.9587 469.812 69.716 470.521 69.716C471.137 69.716 471.613 69.8933 471.949 70.248C472.285 70.6027 472.453 71.0507 472.453 71.592C472.453 72.1333 472.304 72.572 472.005 72.908C471.725 73.2253 471.343 73.384 470.857 73.384C470.372 73.384 469.999 73.2347 469.737 72.936C469.476 72.6373 469.345 72.2173 469.345 71.676H469.261C469.112 71.8627 468.944 72.1147 468.757 72.432C468.571 72.7307 468.384 73.0853 468.197 73.496L466.629 77.024C467.003 77.08 467.32 77.2013 467.581 77.388C467.843 77.5747 468.095 77.8547 468.337 78.228L471.557 83.212H473.125V84.5H469.681L465.369 77.836H463.045V83.212H465.117V84.5H458.677V83.212ZM477.21 90.436C476.258 90.436 475.567 90.2307 475.138 89.82C474.708 89.428 474.494 88.9053 474.494 88.252C474.494 87.7667 474.624 87.3747 474.886 87.076C475.147 86.7773 475.52 86.628 476.006 86.628C476.435 86.628 476.762 86.7493 476.986 86.992C477.228 87.2533 477.35 87.5987 477.35 88.028C477.35 88.3453 477.266 88.5973 477.098 88.784C476.948 88.9893 476.78 89.12 476.594 89.176V89.26C476.799 89.3347 477.042 89.372 477.322 89.372C477.807 89.372 478.283 89.1573 478.75 88.728C479.216 88.3173 479.636 87.636 480.01 86.684L480.598 85.088L475.278 71.34H473.822V70.052H479.814V71.34H477.798L481.69 81.924H481.802L485.582 71.34H483.566V70.052H488.662V71.34H487.206L481.214 86.908C480.822 87.9347 480.29 88.7747 479.618 89.428C478.964 90.1 478.162 90.436 477.21 90.436ZM498.041 83.212H500.673V77.388H500.589C500.141 77.9293 499.571 78.368 498.881 78.704C498.209 79.04 497.369 79.208 496.361 79.208C494.905 79.208 493.813 78.872 493.085 78.2C492.357 77.528 491.993 76.4267 491.993 74.896V71.312H489.921V70.052H496.221V71.312H494.289V74.672C494.289 75.736 494.513 76.492 494.961 76.94C495.427 77.388 496.23 77.612 497.369 77.612C498.358 77.612 499.151 77.4347 499.749 77.08C500.365 76.7253 500.673 76.1933 500.673 75.484V71.312H498.741V70.052H505.041V71.312H502.969V83.212H505.041V84.5H498.041V83.212ZM507.841 83.212H509.913V71.312H507.841V70.052H514.281V71.312H512.209V76.492H519.153V71.312H517.081V70.052H523.521V71.312H521.449V83.212H523.521V84.5H517.081V83.212H519.153V77.864H512.209V83.212H514.281V84.5H507.841V83.212ZM532.822 83.464C533.512 83.464 534.11 83.352 534.614 83.128C535.136 82.8853 535.556 82.5587 535.874 82.148C536.21 81.7187 536.452 81.224 536.602 80.664C536.77 80.0853 536.854 79.46 536.854 78.788V75.764C536.854 75.092 536.77 74.476 536.602 73.916C536.452 73.3373 536.21 72.8427 535.874 72.432C535.556 72.0027 535.136 71.676 534.614 71.452C534.11 71.2093 533.512 71.088 532.822 71.088C532.112 71.088 531.506 71.2093 531.002 71.452C530.498 71.676 530.078 72.0027 529.742 72.432C529.424 72.8427 529.182 73.3373 529.014 73.916C528.864 74.476 528.79 75.092 528.79 75.764V78.788C528.79 79.46 528.864 80.0853 529.014 80.664C529.182 81.224 529.424 81.7187 529.742 82.148C530.078 82.5587 530.498 82.8853 531.002 83.128C531.506 83.352 532.112 83.464 532.822 83.464ZM532.822 84.836C531.832 84.836 530.927 84.6587 530.106 84.304C529.284 83.9493 528.584 83.4453 528.006 82.792C527.427 82.12 526.979 81.3267 526.662 80.412C526.344 79.4787 526.186 78.4333 526.186 77.276C526.186 76.1373 526.344 75.1013 526.662 74.168C526.979 73.2347 527.427 72.4413 528.006 71.788C528.584 71.116 529.284 70.6027 530.106 70.248C530.927 69.8933 531.832 69.716 532.822 69.716C533.811 69.716 534.716 69.8933 535.538 70.248C536.359 70.6027 537.059 71.116 537.638 71.788C538.216 72.4413 538.664 73.2347 538.982 74.168C539.299 75.1013 539.458 76.1373 539.458 77.276C539.458 78.4333 539.299 79.4787 538.982 80.412C538.664 81.3267 538.216 82.12 537.638 82.792C537.059 83.4453 536.359 83.9493 535.538 84.304C534.716 84.6587 533.811 84.836 532.822 84.836Z" fill="#415283"/>
</g>
<defs>
<clipPath id="clip0_7141_23697">
<rect width="560" height="112" fill="white"/>
</clipPath>
</defs>
</svg>
