<svg width="20" height="20" viewBox="0 0 20 20" fill="none" xmlns="http://www.w3.org/2000/svg">
<path d="M9.32 13.3793V13.3793C8.63069 13.0365 7.89318 12.8006 7.13285 12.6799L6 12.5L4.12 12.3448H3.56022C3.24437 12.3448 2.93282 12.2716 2.65002 12.131L2.59433 12.1033C2.23451 11.9243 1.94243 11.6335 1.76195 11.2744V11.2744C1.33044 10.416 1.62485 9.37016 2.44081 8.86289L5.43733 7M9.32 13.3793H9.78914C10.5066 13.3793 11.2143 13.213 11.8567 12.8935L12.1806 12.7325C12.6914 12.4784 13.127 12.0956 13.4446 11.6217V11.6217C13.8067 11.0815 14 10.4459 14 9.79558V9.24138M9.32 13.3793L6.72 17M5 16.2846C5.97991 17.1223 7.14777 17.7108 8.40413 18C9.66048 18.2892 10.9681 18.2704 12.2156 17.9453C13.4632 17.6203 14.6137 16.9985 15.5692 16.133C16.5247 15.2676 17.2569 14.184 17.7034 12.9746C18.1499 11.7652 18.2975 10.4658 18.1336 9.18701C17.9697 7.90826 17.4993 6.68806 16.7623 5.63031C16.0252 4.57256 15.0435 3.7086 13.9006 3.112C12.7578 2.5154 11.7892 2 10.5 2V2C9.8483 2 9.32 2.5283 9.32 3.18V3.66229C9.32 4.23684 9.0233 4.77066 8.53535 5.07401L8 5.40683M8 5.40683L5.26314 3.07583C4.88601 2.75462 4.32154 3.11851 4.4584 3.59461L5.43733 7M8 5.40683L5.43733 7" stroke="#415283" stroke-width="1.5" stroke-linecap="round"/>
<circle cx="10" cy="8" r="0.5" stroke="#415283" stroke-linecap="round"/>
</svg>
