<svg width="20" height="21" viewBox="0 0 20 21" fill="none" xmlns="http://www.w3.org/2000/svg">
<g id="ph:seal-question">
<path id="Vector" d="M17.6453 8.53281C17.3508 8.225 17.0461 7.90781 16.9312 7.62891C16.825 7.37344 16.8187 6.95 16.8125 6.53984C16.8008 5.77734 16.7883 4.91328 16.1875 4.3125C15.5867 3.71172 14.7227 3.69922 13.9602 3.6875C13.55 3.68125 13.1266 3.675 12.8711 3.56875C12.593 3.45391 12.275 3.14922 11.9672 2.85469C11.4281 2.33672 10.8156 1.75 10 1.75C9.18437 1.75 8.57266 2.33672 8.03281 2.85469C7.725 3.14922 7.40781 3.45391 7.12891 3.56875C6.875 3.675 6.45 3.68125 6.03984 3.6875C5.27734 3.69922 4.41328 3.71172 3.8125 4.3125C3.21172 4.91328 3.20312 5.77734 3.1875 6.53984C3.18125 6.95 3.175 7.37344 3.06875 7.62891C2.95391 7.90703 2.64922 8.225 2.35469 8.53281C1.83672 9.07188 1.25 9.68437 1.25 10.5C1.25 11.3156 1.83672 11.9273 2.35469 12.4672C2.64922 12.775 2.95391 13.0922 3.06875 13.3711C3.175 13.6266 3.18125 14.05 3.1875 14.4602C3.19922 15.2227 3.21172 16.0867 3.8125 16.6875C4.41328 17.2883 5.27734 17.3008 6.03984 17.3125C6.45 17.3187 6.87344 17.325 7.12891 17.4312C7.40703 17.5461 7.725 17.8508 8.03281 18.1453C8.57188 18.6633 9.18437 19.25 10 19.25C10.8156 19.25 11.4273 18.6633 11.9672 18.1453C12.275 17.8508 12.5922 17.5461 12.8711 17.4312C13.1266 17.325 13.55 17.3187 13.9602 17.3125C14.7227 17.3008 15.5867 17.2883 16.1875 16.6875C16.7883 16.0867 16.8008 15.2227 16.8125 14.4602C16.8187 14.05 16.825 13.6266 16.9312 13.3711C17.0461 13.093 17.3508 12.775 17.6453 12.4672C18.1633 11.9281 18.75 11.3156 18.75 10.5C18.75 9.68437 18.1633 9.07266 17.6453 8.53281ZM16.743 11.6023C16.3687 11.993 15.9812 12.3969 15.7758 12.893C15.5789 13.3695 15.5703 13.9141 15.5625 14.4414C15.5547 14.9883 15.5461 15.5609 15.3031 15.8031C15.0602 16.0453 14.4914 16.0547 13.9414 16.0625C13.4141 16.0703 12.8695 16.0789 12.393 16.2758C11.8969 16.4812 11.493 16.8687 11.1023 17.243C10.7117 17.6172 10.3125 18 10 18C9.6875 18 9.28516 17.6156 8.89766 17.243C8.51016 16.8703 8.10313 16.4812 7.60703 16.2758C7.13047 16.0789 6.58594 16.0703 6.05859 16.0625C5.51172 16.0547 4.93906 16.0461 4.69687 15.8031C4.45469 15.5602 4.44531 14.9914 4.4375 14.4414C4.42969 13.9141 4.42109 13.3695 4.22422 12.893C4.01875 12.3969 3.63125 11.993 3.25703 11.6023C2.88281 11.2117 2.5 10.8125 2.5 10.5C2.5 10.1875 2.88437 9.78516 3.25703 9.39766C3.62969 9.01016 4.01875 8.60313 4.22422 8.10703C4.42109 7.63047 4.42969 7.08594 4.4375 6.55859C4.44531 6.01172 4.45391 5.43906 4.69687 5.19687C4.93984 4.95469 5.50859 4.94531 6.05859 4.9375C6.58594 4.92969 7.13047 4.92109 7.60703 4.72422C8.10313 4.51875 8.50703 4.13125 8.89766 3.75703C9.28828 3.38281 9.6875 3 10 3C10.3125 3 10.7148 3.38437 11.1023 3.75703C11.4898 4.12969 11.8969 4.51875 12.393 4.72422C12.8695 4.92109 13.4141 4.92969 13.9414 4.9375C14.4883 4.94531 15.0609 4.95391 15.3031 5.19687C15.5453 5.43984 15.5547 6.00859 15.5625 6.55859C15.5703 7.08594 15.5789 7.63047 15.7758 8.10703C15.9812 8.60313 16.3687 9.00703 16.743 9.39766C17.1172 9.78828 17.5 10.1875 17.5 10.5C17.5 10.8125 17.1156 11.2148 16.743 11.6023ZM10.9375 14.5625C10.9375 14.7479 10.8825 14.9292 10.7795 15.0833C10.6765 15.2375 10.5301 15.3577 10.3588 15.4286C10.1875 15.4996 9.99896 15.5182 9.8171 15.482C9.63525 15.4458 9.4682 15.3565 9.33709 15.2254C9.20598 15.0943 9.11669 14.9273 9.08051 14.7454C9.04434 14.5635 9.06291 14.375 9.13386 14.2037C9.20482 14.0324 9.32498 13.886 9.47915 13.783C9.63332 13.68 9.81458 13.625 10 13.625C10.2486 13.625 10.4871 13.7238 10.6629 13.8996C10.8387 14.0754 10.9375 14.3139 10.9375 14.5625ZM13.125 8.9375C13.125 10.2953 12.05 11.432 10.625 11.6938V11.75C10.625 11.9158 10.5592 12.0747 10.4419 12.1919C10.3247 12.3092 10.1658 12.375 10 12.375C9.83424 12.375 9.67527 12.3092 9.55806 12.1919C9.44085 12.0747 9.375 11.9158 9.375 11.75V11.125C9.375 10.9592 9.44085 10.8003 9.55806 10.6831C9.67527 10.5658 9.83424 10.5 10 10.5C11.0336 10.5 11.875 9.79688 11.875 8.9375C11.875 8.07812 11.0336 7.375 10 7.375C8.96641 7.375 8.125 8.07812 8.125 8.9375V9.25C8.125 9.41576 8.05915 9.57473 7.94194 9.69194C7.82473 9.80915 7.66576 9.875 7.5 9.875C7.33424 9.875 7.17527 9.80915 7.05806 9.69194C6.94085 9.57473 6.875 9.41576 6.875 9.25V8.9375C6.875 7.38672 8.27656 6.125 10 6.125C11.7234 6.125 13.125 7.38672 13.125 8.9375Z" fill="#415283"/>
</g>
</svg>
