<svg width="20" height="20" viewBox="0 0 20 20" fill="none" xmlns="http://www.w3.org/2000/svg">
<g id="solar:atom-broken" clip-path="url(#clip0_7141_23707)">
<g id="Group">
<path id="Vector" d="M6.27416 13.7258C2.15833 9.61083 0.490826 4.60583 2.54833 2.54833C4.20666 0.88916 7.78166 1.65166 11.2608 4.16666M13.7258 6.27416C17.8417 10.39 19.5092 15.3942 17.4517 17.4517C15.7942 19.1092 12.2267 18.35 8.74999 15.8417M17.4517 2.54833C19.51 4.60583 17.8417 9.60999 13.7267 13.7258C9.60999 17.8417 4.60583 19.5092 2.54833 17.4517C0.88916 15.7933 1.65166 12.2183 4.16666 8.73833C4.8027 7.86261 5.50743 7.0389 6.27416 6.27499C10.39 2.15833 15.3942 0.490826 17.4517 2.54833Z" stroke="white" stroke-width="1.5" stroke-linecap="round" stroke-linejoin="round"/>
<path id="Vector_2" d="M12.0834 10.0001C12.0834 10.5526 11.8639 11.0825 11.4732 11.4732C11.0825 11.8639 10.5526 12.0834 10 12.0834C9.44749 12.0834 8.91758 11.8639 8.52688 11.4732C8.13618 11.0825 7.91669 10.5526 7.91669 10.0001C7.91669 9.44755 8.13618 8.91764 8.52688 8.52694C8.91758 8.13624 9.44749 7.91675 10 7.91675C10.5526 7.91675 11.0825 8.13624 11.4732 8.52694C11.8639 8.91764 12.0834 9.44755 12.0834 10.0001Z" stroke="white" stroke-width="1.5" stroke-linecap="round" stroke-linejoin="round"/>
</g>
</g>
<defs>
<clipPath id="clip0_7141_23707">
<rect width="20" height="20" fill="white"/>
</clipPath>
</defs>
</svg>
