<svg width="145" height="112" viewBox="0 0 145 112" fill="none" xmlns="http://www.w3.org/2000/svg">
<path id="Star 1" d="M57.1967 -36.3533L62.4069 17.9473L84.1419 -32.0856L72.3173 21.1674L108.45 -19.7002L80.7477 27.2924L127.74 -0.409519L86.8727 35.7227L140.126 23.8981L90.0928 45.6332L144.393 50.8434L90.0928 56.0536L140.126 77.7886L86.8727 65.9641L127.74 102.096L80.7477 74.3944L108.45 121.387L72.3173 80.5194L84.1419 133.772L62.4069 83.7395L57.1967 138.04L51.9864 83.7395L30.2514 133.772L42.076 80.5194L5.94375 121.387L33.6456 74.3944L-13.3469 102.096L27.5207 65.9641L-25.7323 77.7886L24.3006 56.0536L-30 50.8434L24.3006 45.6332L-25.7323 23.8981L27.5207 35.7227L-13.3469 -0.409519L33.6456 27.2924L5.94375 -19.7002L42.076 21.1674L30.2514 -32.0856L51.9864 17.9473L57.1967 -36.3533Z" fill="#B6E0CF"/>
</svg>
